<svg id="Layer_1" data-name="Layer 1" xmlns="http://www.w3.org/2000/svg" viewBox="0 0 500 500"><defs><style>.cls-1{fill:#d5eecd;}.cls-2{fill:#67923d;}.cls-3{fill:#4d6e2e;}.cls-4{fill:#642d10;}</style></defs><path class="cls-1" d="M444,455a16.19,16.19,0,0,1-4.11-1.31,3.29,3.29,0,0,1-1-.3c-20.12-9.79-32.19-30.65-33.24-52.72a81.87,81.87,0,0,1,5.32-32.11c4.41-11.89,16.22-24.6,14.69-37.74-.3-2.6,3.18-4.12,5.07-2.78a2.4,2.4,0,0,1,.85,1c3.24,7.07,13.22,9.76,19.08,14.61A59,59,0,0,1,463.56,359c7.11,12,10,26.1,10.21,39.93.23,14.48-1.66,30.24-8.58,43.18-3.52,6.57-9.47,11.94-16.27,12.91.34,1.47.67,2.93,1,4.39A388.06,388.06,0,0,0,461.74,500H484a80.68,80.68,0,0,1,16-15.55V430.31a73,73,0,0,1-5.22-9.72,81.61,81.61,0,0,1-6.55-31.87A64.41,64.41,0,0,1,500,351.91V320.23c-5.2-2.11-11.66-2.65-16.51-4.75a58.88,58.88,0,0,1-16.72-11.14c-10.18-9.54-16.89-22.28-21-35.5C441.54,255,439,239.35,442,225c1.54-7.3,5.75-14.11,12-17-.73-1.31-1.45-2.62-2.19-3.93A384.87,384.87,0,0,0,428.12,167c-1.83-2.5,2.21-5.08,4-2.6a402.32,402.32,0,0,1,26.6,42.32,16.18,16.18,0,0,1,4.32.11,3.2,3.2,0,0,1,1.07,0A58.71,58.71,0,0,1,500,228.5V202.76a64.35,64.35,0,0,1-19.34-35.16,81.74,81.74,0,0,1,.7-32.53c2.68-12.4,12.56-26.66,9.18-39.45-.67-2.53,2.56-4.53,4.62-3.48a2.56,2.56,0,0,1,1,.9A13.73,13.73,0,0,0,500,96.86V73.67c-5.75,1.71-11.89,1.63-16.73-1.06-.62,1.37-1.24,2.74-1.85,4.11a383.27,383.27,0,0,0-15.7,41.13c-.92,3-5.4,1.24-4.49-1.69a401.81,401.81,0,0,1,18.17-46.6,16.16,16.16,0,0,1-2.5-3.51,3.38,3.38,0,0,1-.64-.86c-10.09-20-7.08-43.88,5.44-62.09C482.42,2,483.18,1,484,0H440.87A95.08,95.08,0,0,1,446,19.15c2.28,14.3,2.65,30.17-2.37,44-2.55,7-7.67,13.17-14.26,15.1.54,1.4,1.07,2.81,1.62,4.2a384.78,384.78,0,0,0,18.27,40.06c1.45,2.73-2.91,4.72-4.36,2a401.55,401.55,0,0,1-20.41-45.63,16.79,16.79,0,0,1-4.26-.71,3.45,3.45,0,0,1-1.07-.15c-21.3-6.83-36.22-25.77-40.39-47.47A80.91,80.91,0,0,1,379,0H345.3c-.55,2.61-1.1,5.23-1.62,7.85-.29,1.48-.56,3-.84,4.43,6.83.71,13,5.84,16.75,12.28,7.42,12.66,9.92,28.33,10.25,42.81.31,13.83-2,28-8.66,40.3a59.3,59.3,0,0,1-12.34,15.86c-5.67,5.07-15.54,8.14-18.5,15.33a2.43,2.43,0,0,1-.81,1.06c-1.84,1.4-5.38,0-5.18-2.59,1-13.18-11.26-25.43-16.13-37.15a81.61,81.61,0,0,1-6.55-31.87c.19-22.1,11.45-43.41,31.17-54a3.6,3.6,0,0,1,1-.34,16.35,16.35,0,0,1,4.07-1.46Q339.1,6.26,340.41,0H293.16a62.26,62.26,0,0,1,1.2,11.46c.19,14-4.35,27.61-11.05,39.71-7,12.66-16.52,25.38-29,33.14-6.33,4-14.15,5.63-20.53,3.09-.44,1.44-.89,2.87-1.31,4.31a381.6,381.6,0,0,0-10.33,42.8c-.53,3-5.2,1.92-4.66-1.11a401,401,0,0,1,12.07-48.53,15.86,15.86,0,0,1-2.92-3.16,3.49,3.49,0,0,1-.75-.78c-12.56-18.51-12.63-42.62-2.53-62.27A77.92,77.92,0,0,1,237,0H173.68a66.13,66.13,0,0,1,12,17.06,81.91,81.91,0,0,1,7.86,31.58c.67,12.67-5.12,29,1.5,40.47,1.31,2.27-1.29,5-3.55,4.57a2.5,2.5,0,0,1-1.19-.6c-5.78-5.21-16-3.72-23.31-5.84a59.09,59.09,0,0,1-18-9c-11.29-8.2-19.53-20-25.22-32.6-6-13.2-10.47-28.42-9.25-43,.07-.88.19-1.76.34-2.63H84.72q-1.59,7-3,14c-.29,1.47-.56,2.95-.84,4.43,6.83.71,13,5.84,16.75,12.28,7.42,12.65,9.92,28.33,10.25,42.81.32,13.82-2,28-8.66,40.29a58.59,58.59,0,0,1-12.34,15.86c-5.66,5.07-15.53,8.15-18.49,15.34a2.56,2.56,0,0,1-.82,1.05c-1.83,1.41-5.38,0-5.17-2.58,1-13.19-11.27-25.44-16.14-37.15a81.62,81.62,0,0,1-6.55-31.88c.19-22.09,11.45-43.4,31.18-54a2.92,2.92,0,0,1,1-.34A16.18,16.18,0,0,1,76,18.7C77.15,12.44,78.41,6.21,79.81,0H53.4c-.06,1.68-.19,3.35-.38,5-1.6,13.86-7.84,26.83-16,38C28.41,54.65,17.37,66.05,4,72.17a30.48,30.48,0,0,1-4,1.5V96.86c5,3.44,12.14,4.89,17.11,7.93a58.85,58.85,0,0,1,15,13.37c8.75,10.87,13.6,24.42,15.79,38.08,2.28,14.3,2.64,30.17-2.37,43.95-2.55,7-7.67,13.17-14.26,15.1.54,1.4,1.07,2.81,1.62,4.2a384.78,384.78,0,0,0,18.27,40.06c1.45,2.73-2.91,4.72-4.36,2a401.55,401.55,0,0,1-20.41-45.63,16.79,16.79,0,0,1-4.26-.71,3.45,3.45,0,0,1-1.07-.15A56.7,56.7,0,0,1,0,202.76V228.5a65.8,65.8,0,0,1,10.78,19.68,81.54,81.54,0,0,1,3.86,32.31c-.91,12.66-8.69,28.16-3.56,40.34,1,2.42-1.91,4.85-4.09,4.1a2.55,2.55,0,0,1-1.11-.75A15,15,0,0,0,0,320.23v31.68a56.8,56.8,0,0,1,19.41-17.16,3.4,3.4,0,0,1,1-.34A16.15,16.15,0,0,1,24.49,333a402.55,402.55,0,0,1,11.85-48.57c.94-2.93,5.59-1.75,4.65,1.19a386.53,386.53,0,0,0-10.75,42.7c-.29,1.47-.56,3-.84,4.42,6.83.71,13,5.84,16.75,12.28,7.42,12.66,9.92,28.33,10.25,42.81.32,13.83-2,28-8.66,40.3A58.9,58.9,0,0,1,35.4,443.94c-5.67,5.07-15.53,8.14-18.49,15.33a2.53,2.53,0,0,1-.82,1.06c-1.83,1.4-5.38,0-5.17-2.59.74-9.59-5.56-18.68-10.92-27.43v54.14c1.75-1.29,3.52-2.54,5.35-3.7,10.71-6.8,27.8-9.78,34.53-21.16,1.33-2.25,5-1.35,5.73.85a2.58,2.58,0,0,1,.06,1.33c-1.7,7.59,4.61,15.77,6.35,23.17A56.84,56.84,0,0,1,53.4,500H79.81c2.26-10,4.87-20,8-29.86.94-2.93,5.59-1.76,4.65,1.19-3,9.47-5.56,19-7.76,28.67h30.2c1.11-6.48,4.3-12.51,9.45-15.68l-2.66-3.63a384.34,384.34,0,0,0-28.14-33.86c-2.12-2.25,1.56-5.31,3.67-3.07a400.59,400.59,0,0,1,31.69,38.68,16.44,16.44,0,0,1,4.28-.45,3.34,3.34,0,0,1,1.07-.13c15.22.68,29.05,7.56,39.4,18.14H237a90,90,0,0,1,7-6.52c9.76-8.11,26.33-13.25,31.55-25.4,1-2.41,4.81-2,5.79.12a2.54,2.54,0,0,1,.23,1.31c-.72,7.74,6.59,15.05,9.25,22.17a54.39,54.39,0,0,1,2.35,8.32h47.25a369.58,369.58,0,0,1,9.37-36c.94-2.93,5.59-1.76,4.65,1.19-3.67,11.49-6.62,23.11-9.13,34.84H379c.13-.68.27-1.35.41-2,2.68-12.4,12.56-26.66,9.18-39.45-.67-2.53,2.56-4.53,4.62-3.48a2.49,2.49,0,0,1,1,.9c4.21,6.54,14.47,7.78,21,11.75a58.85,58.85,0,0,1,15,13.37A70.58,70.58,0,0,1,440.87,500h15.79A407.79,407.79,0,0,1,444,455ZM339.89,150.58a81.58,81.58,0,0,1,20.59-25.21c9.74-8.12,26.31-13.27,31.52-25.43,1-2.4,4.81-2,5.78.11a2.46,2.46,0,0,1,.23,1.31c-.71,7.75,6.61,15,9.28,22.17a58.71,58.71,0,0,1,3.57,19.77c.2,13.95-4.31,27.61-11,39.72-7,12.67-16.49,25.4-28.93,33.18-6.32,4-14.15,5.64-20.53,3.11-.44,1.44-.88,2.87-1.31,4.31a386,386,0,0,0-10.28,42.81c-.53,3-5.19,1.93-4.66-1.1a399.74,399.74,0,0,1,12-48.55,16.2,16.2,0,0,1-2.93-3.16,3.21,3.21,0,0,1-.74-.77C329.91,194.34,329.81,170.24,339.89,150.58Zm-74.54.73c3.45-6.61,9.34-12,16.13-13.09-.35-1.46-.69-2.92-1.06-4.37A383.88,383.88,0,0,0,267.6,91.73c-1.08-2.9,3.5-4.29,4.58-1.41a398.11,398.11,0,0,1,14.22,47.92,16.27,16.27,0,0,1,4.13,1.26,3.54,3.54,0,0,1,1,.29c20.22,9.58,32.5,30.32,33.78,52.38a81.81,81.81,0,0,1-5,32.16c-4.29,11.94-16,24.77-14.3,37.89.33,2.6-3.14,4.15-5.05,2.84a2.56,2.56,0,0,1-.86-1c-3.31-7-13.31-9.62-19.22-14.41a58.7,58.7,0,0,1-13.1-15.24c-7.24-11.92-10.27-26-10.63-39.82C256.83,180.09,258.56,164.32,265.35,151.31ZM57,310.91c-.92,3-5.4,1.25-4.49-1.69a401,401,0,0,1,18.17-46.59,16.16,16.16,0,0,1-2.5-3.51,3.44,3.44,0,0,1-.64-.87c-10.09-20-7.08-43.88,5.43-62.08a81.72,81.72,0,0,1,23.66-22.35c10.71-6.8,27.8-9.78,34.53-21.17,1.33-2.25,5-1.35,5.73.86a2.68,2.68,0,0,1,.06,1.33c-1.71,7.58,4.61,15.76,6.35,23.17a58.86,58.86,0,0,1,1,20.07c-1.6,13.86-7.84,26.83-16,38-8.58,11.67-19.62,23.07-33,29.18-6.78,3.11-14.76,3.78-20.76.45-.62,1.37-1.25,2.73-1.85,4.1A384.9,384.9,0,0,0,57,310.91Zm89.77,60.31a81.66,81.66,0,0,1-19.42,26.12C118,405.89,101.65,411.8,97,424.17c-.92,2.46-4.71,2.21-5.78.16a2.52,2.52,0,0,1-.29-1.3c.36-7.77-7.29-14.73-10.28-21.72a58.9,58.9,0,0,1-4.47-19.59c-.83-13.92,3.06-27.78,9.19-40.18,6.42-13,15.31-26.12,27.39-34.46,6.14-4.23,13.88-6.29,20.37-4,.37-1.46.75-2.91,1.11-4.37a386.15,386.15,0,0,0,8.32-43.23c.39-3.07,5.1-2.16,4.71.89a400.28,400.28,0,0,1-9.8,49,16.2,16.2,0,0,1,3.07,3,3.61,3.61,0,0,1,.78.74C154.73,327,155.92,351.12,146.75,371.22Zm16.11-214.39c3.31-6.68,9.09-12.23,15.85-13.42-.38-1.45-.76-2.91-1.15-4.36a385,385,0,0,0-13.7-41.84c-1.15-2.87,3.41-4.36,4.55-1.51a402.37,402.37,0,0,1,15.22,47.62,16.24,16.24,0,0,1,4.15,1.18,3.26,3.26,0,0,1,1.05.27c20.41,9.15,33.13,29.62,34.87,51.65a81.69,81.69,0,0,1-4.31,32.26c-4,12-15.44,25.1-13.5,38.18.39,2.59-3,4.21-5,2.94a2.51,2.51,0,0,1-.88-1c-3.46-7-13.52-9.35-19.53-14a58.73,58.73,0,0,1-13.41-15c-7.49-11.77-10.81-25.77-11.46-39.59C154.94,185.78,156.34,170,162.86,156.83Zm69.57,266a81.52,81.52,0,0,1-7.51,31.67c-5.22,11.56-17.87,23.43-17.24,36.64.12,2.62-3.46,3.89-5.26,2.43a2.58,2.58,0,0,1-.78-1.08c-2.74-7.27-12.51-10.64-18-15.88a58.94,58.94,0,0,1-11.86-16.23c-6.27-12.46-8.17-26.72-7.44-40.54.76-14.46,3.73-30.05,11.53-42.48,4-6.32,10.26-11.26,17.11-11.77-.23-1.48-.46-3-.71-4.45a383.92,383.92,0,0,0-9.45-43c-.85-3,3.83-4,4.68-1.05A402.78,402.78,0,0,1,197.87,366a16.29,16.29,0,0,1,4,1.58,3.55,3.55,0,0,1,1,.37C222.29,379.11,232.9,400.75,232.43,422.84Zm47.26-61.18c-3.68,6.49-9.76,11.7-16.58,12.5.3,1.48.59,2.95.9,4.42a383.3,383.3,0,0,0,11.31,42.55c1,2.93-3.66,4.16-4.63,1.25A401.86,401.86,0,0,1,258.19,374a16,16,0,0,1-4.08-1.41,3.2,3.2,0,0,1-1-.33c-19.87-10.29-31.41-31.45-31.89-53.54a81.64,81.64,0,0,1,6.13-32C232,275,244.17,262.54,243,249.37c-.24-2.61,3.29-4,5.14-2.66a2.58,2.58,0,0,1,.83,1c3.05,7.15,13,10.09,18.7,15.09a59,59,0,0,1,12.54,15.69c6.81,12.18,9.33,26.35,9.2,40.18C289.24,333.2,286.94,348.91,279.69,361.66Zm78.51,63a58.85,58.85,0,0,1-8.62,18.15c-4.44,6.17-13.41,11.3-14.75,19a2.53,2.53,0,0,1-.57,1.21c-1.49,1.76-5.25,1.18-5.61-1.41-1.85-13.1-16.49-22.4-23.77-32.79a81.69,81.69,0,0,1-13.28-29.71c-4.58-21.62,1.81-44.86,18.8-59.42a3.2,3.2,0,0,1,.92-.56,16.34,16.34,0,0,1,3.65-2.3,399.21,399.21,0,0,1,1.1-50c.28-3.06,5.07-2.92,4.79.16a385.06,385.06,0,0,0-1.28,44c0,1.5.09,3,.13,4.5,6.83-.77,13.94,2.91,19,8.38,10,10.76,15.8,25.52,19.24,39.59C361.26,396.87,362,411.24,358.2,424.66ZM379.3,362a2.52,2.52,0,0,1-.94.95c-2,1.17-5.34-.62-4.83-3.19,2.6-13-8.13-26.6-11.55-38.81a81.76,81.76,0,0,1-2.67-32.44c2.84-21.91,16.58-41.71,37.43-49.82a3.24,3.24,0,0,1,1.06-.22,16.5,16.5,0,0,1,4.21-1,399.66,399.66,0,0,1,17.6-46.78c1.29-2.8,5.76-1.08,4.47,1.73a385.49,385.49,0,0,0-15.8,41.1c-.46,1.43-.91,2.86-1.36,4.29,6.69,1.53,12.18,7.36,15.15,14.2,5.84,13.46,6.44,29.32,5,43.73-1.35,13.77-5.38,27.59-13.45,39A58.61,58.61,0,0,1,399.5,349C393.27,353.34,383.1,355.21,379.3,362Z"/><path class="cls-2" d="M13.47,0h-.85c.09.33.18.66.28,1Z"/><path class="cls-2" d="M9.75,6.22A37.28,37.28,0,0,1,7.66,0H0V26.65C3.2,19.93,6.42,13.14,9.91,6.5A2.54,2.54,0,0,1,9.75,6.22Z"/><path class="cls-3" d="M37,43C45.18,31.84,51.42,18.87,53,5c.19-1.66.32-3.33.38-5H18.79C14.46,7.28,10.64,15,7,22.64A88,88,0,0,0,35.86,10.13c2.55-1.7,5.63,2,3.07,3.69A94.52,94.52,0,0,1,4.41,28.09Q2.21,32.83,0,37.49V54.11A64.88,64.88,0,0,0,21.46,42.67c2.41-1.93,5.47,1.76,3.06,3.68A70.14,70.14,0,0,1,0,59.15V73.67a30.48,30.48,0,0,0,4-1.5C17.37,66.05,28.41,54.65,37,43Z"/><path class="cls-4" d="M21.46,42.67A64.88,64.88,0,0,1,0,54.11v5a70.14,70.14,0,0,0,24.52-12.8C26.93,44.43,23.87,40.74,21.46,42.67Z"/><path class="cls-4" d="M38.93,13.82c2.56-1.71-.52-5.39-3.07-3.69A88,88,0,0,1,7,22.64C10.64,15,14.46,7.28,18.79,0H13.47L12.9,1c-.1-.32-.19-.65-.28-1h-5A37.28,37.28,0,0,0,9.75,6.22a2.54,2.54,0,0,0,.16.28C6.42,13.14,3.2,19.93,0,26.65V37.49q2.21-4.66,4.41-9.4A94.52,94.52,0,0,0,38.93,13.82Z"/><path class="cls-2" d="M476.26,65.19a3.38,3.38,0,0,0,.64.86,16.16,16.16,0,0,0,2.5,3.51c2.31-5.09,4.7-10.16,7.12-15.21-6.27-6.85-8.66-15.86-10.75-24.78-.71-3,4-3.74,4.73-.75,1.74,7.43,3.68,14.8,8.32,20.79q3-6.22,6.1-12.45c.87-1.75,1.73-3.54,2.58-5.32a53.08,53.08,0,0,1-9-27.71c-.1-3,4.63-3.82,4.74-.74A48.78,48.78,0,0,0,500,26.75l.05-.1V0H484c-.78,1-1.54,2-2.26,3.1C469.18,21.31,466.17,45.22,476.26,65.19Z"/><path class="cls-3" d="M492.09,53.74a2.15,2.15,0,0,1-1,2l-.22.48A66.74,66.74,0,0,0,500,54.11V37.49q-1.62,3.4-3.25,6.74Q494.4,49,492.09,53.74Z"/><path class="cls-3" d="M488.4,61.48c-1.75,3.7-3.45,7.41-5.13,11.13,4.84,2.69,11,2.77,16.73,1.06V59.15a72.06,72.06,0,0,1-11.57,2.33Z"/><path class="cls-4" d="M493.23,3.39c-.11-3.08-4.84-2.3-4.74.74a53.08,53.08,0,0,0,9,27.71c-.85,1.78-1.71,3.57-2.58,5.32q-3.07,6.23-6.1,12.45c-4.64-6-6.58-13.36-8.32-20.79-.7-3-5.44-2.26-4.73.75,2.09,8.92,4.48,17.93,10.75,24.78-2.42,5-4.81,10.12-7.12,15.21a401.81,401.81,0,0,0-18.17,46.6c-.91,2.93,3.57,4.64,4.49,1.69a383.27,383.27,0,0,1,15.7-41.13c.61-1.37,1.23-2.74,1.85-4.11,1.68-3.72,3.38-7.43,5.13-11.13h0A72.06,72.06,0,0,0,500,59.15v-5a66.74,66.74,0,0,1-9.11,2.15l.22-.48a2.15,2.15,0,0,0,1-2q2.31-4.77,4.66-9.51,1.63-3.33,3.25-6.74V26.65l-.05.1A48.78,48.78,0,0,1,493.23,3.39Z"/><path class="cls-2" d="M327.66,126.42c-3-12.61-3-25.55-1.65-38.47a31.82,31.82,0,0,0-9.41,11.47c-1.37,2.77-5.56.43-4.19-2.33a36.69,36.69,0,0,1,14-15.24c.1-.06.2-.09.29-.14,1-7.48,2.23-14.92,3.47-22.29a48.66,48.66,0,0,0-18.91,15.27c-1.86,2.46-5.29-.89-3.45-3.33A52.93,52.93,0,0,1,331.1,53.84c.32-2,.65-3.91.94-5.84q1.05-6.86,2.15-13.7c-7.24,2.24-13.05,7.17-18.74,12.25-2.29,2.05-5.75-1.26-3.45-3.32,6.83-6.11,14-12.12,23-14.13q1.37-8.3,2.9-16.56A16.35,16.35,0,0,0,333.86,14a3.6,3.6,0,0,0-1,.34c-19.72,10.56-31,31.87-31.17,54a81.61,81.61,0,0,0,6.55,31.87c4.87,11.72,17.16,24,16.13,37.15-.2,2.61,3.34,4,5.18,2.59q-.84-6.19-1.3-12.43A2.28,2.28,0,0,1,327.66,126.42Z"/><path class="cls-3" d="M340.68,24.36a70,70,0,0,1,20.88,33.1c.87,2.95-3.76,4.22-4.63,1.26A64.86,64.86,0,0,0,339.7,30l-.09.52a2.19,2.19,0,0,1-.37,2.24q-.84,5.22-1.65,10.46c-.88,5.78-1.94,11.67-3,17.62a94.37,94.37,0,0,1,20.08,31.49c1.12,2.86-3.51,4.11-4.63,1.26a88,88,0,0,0-16.47-26.81,260.09,260.09,0,0,0-3.5,27.82,49.62,49.62,0,0,1,17.82,19.86c1.36,2.75-2.75,5.21-4.12,2.44a45,45,0,0,0-13.91-16.65,98.32,98.32,0,0,0,2.41,24.87,2.46,2.46,0,0,1-4.06,2.33q.47,6.24,1.3,12.43a2.43,2.43,0,0,0,.81-1.06c3-7.19,12.83-10.26,18.5-15.33a59.3,59.3,0,0,0,12.34-15.86c6.64-12.27,9-26.47,8.66-40.3-.33-14.48-2.83-30.15-10.25-42.81-3.77-6.44-9.92-11.57-16.75-12.28q-1.14,6-2.18,12.06Z"/><path class="cls-4" d="M335,29.1c-9.07,2-16.2,8-23,14.13-2.3,2.06,1.16,5.37,3.45,3.32,5.69-5.08,11.5-10,18.74-12.25Q333.1,41.14,332,48c-.29,1.93-.62,3.89-.94,5.84a52.93,52.93,0,0,0-23.27,17.52c-1.84,2.44,1.59,5.79,3.45,3.33a48.66,48.66,0,0,1,18.91-15.27c-1.24,7.37-2.51,14.81-3.47,22.29-.09.05-.19.08-.29.14a36.69,36.69,0,0,0-14,15.24c-1.37,2.76,2.82,5.1,4.19,2.33A31.82,31.82,0,0,1,326,88c-1.3,12.92-1.36,25.86,1.65,38.47a2.28,2.28,0,0,0,.57,1.07,2.46,2.46,0,0,0,4.06-2.33,98.32,98.32,0,0,1-2.41-24.87,45,45,0,0,1,13.91,16.65c1.37,2.77,5.48.31,4.12-2.44a49.62,49.62,0,0,0-17.82-19.86,260.09,260.09,0,0,1,3.5-27.82,88,88,0,0,1,16.47,26.81c1.12,2.85,5.75,1.6,4.63-1.26a94.37,94.37,0,0,0-20.08-31.49c1-6,2.1-11.84,3-17.62q.81-5.23,1.65-10.46a2.19,2.19,0,0,0,.37-2.24l.09-.52a64.86,64.86,0,0,1,17.23,28.68c.87,3,5.5,1.69,4.63-1.26a70,70,0,0,0-20.88-33.1l0,0q1-6,2.18-12.06c.28-1.48.55-2.95.84-4.43.52-2.62,1.07-5.24,1.62-7.85h-4.89q-1.32,6.26-2.48,12.54Q336.39,20.79,335,29.1Z"/><path class="cls-2" d="M329.53,450.2c-5.67-11.66-8.4-24.31-9.92-37.21a32,32,0,0,0-6.72,13.23c-.74,3-5.33,1.62-4.59-1.37A36.63,36.63,0,0,1,318.71,407a1.57,1.57,0,0,1,.25-.2c-.68-7.51-1-15.05-1.43-22.52a48.64,48.64,0,0,0-15.17,19c-1.28,2.8-5.35.26-4.09-2.51a53,53,0,0,1,19-22.13c-.11-2-.21-3.95-.34-5.91q-.47-6.92-.86-13.83c-6.59,3.74-11.2,9.81-15.66,16-1.79,2.5-5.89,0-4.08-2.5,5.35-7.43,11-14.85,19.44-18.76-.31-5.6-.57-11.2-.75-16.8a16.34,16.34,0,0,0-3.65,2.3,3.2,3.2,0,0,0-.92.56c-17,14.56-23.38,37.8-18.8,59.42a81.69,81.69,0,0,0,13.28,29.71c7.28,10.39,21.92,19.69,23.77,32.79.36,2.59,4.12,3.17,5.61,1.41-1.44-3.91-2.75-7.87-3.95-11.85A2.28,2.28,0,0,1,329.53,450.2Z"/><path class="cls-3" d="M338.72,343.85c-5.07-5.47-12.18-9.15-19-8.38.13,4.09.28,8.17.48,12.25h0a70,70,0,0,1,27.53,27.82c1.48,2.7-2.76,4.94-4.25,2.23a64.75,64.75,0,0,0-23-24.28c0,.17,0,.35,0,.53a2.15,2.15,0,0,1,.12,2.26c.21,3.52.42,7,.65,10.57.39,5.83.63,11.81.89,17.84a94.64,94.64,0,0,1,26.41,26.42c1.71,2.56-2.55,4.77-4.25,2.23a87.79,87.79,0,0,0-21.87-22.62A259.54,259.54,0,0,0,325,418.65a49.58,49.58,0,0,1,21.68,15.54c1.92,2.39-1.56,5.69-3.49,3.28a45.05,45.05,0,0,0-17.18-13.26A98.54,98.54,0,0,0,333.77,448a2.46,2.46,0,0,1-3.46,3.15c1.2,4,2.51,7.94,3.95,11.85a2.53,2.53,0,0,0,.57-1.21c1.34-7.66,10.31-12.79,14.75-19a58.85,58.85,0,0,0,8.62-18.15c3.84-13.42,3.06-27.79-.24-41.22C354.52,369.37,348.69,354.61,338.72,343.85Z"/><path class="cls-4" d="M296.28,372.35c-1.81,2.51,2.29,5,4.08,2.5,4.46-6.19,9.07-12.26,15.66-16q.41,6.91.86,13.83c.13,2,.23,3.93.34,5.91a53,53,0,0,0-19,22.13c-1.26,2.77,2.81,5.31,4.09,2.51a48.64,48.64,0,0,1,15.17-19c.38,7.47.75,15,1.43,22.52a1.57,1.57,0,0,0-.25.2,36.63,36.63,0,0,0-10.41,17.9c-.74,3,3.85,4.37,4.59,1.37A32,32,0,0,1,319.61,413c1.52,12.9,4.25,25.55,9.92,37.21a2.28,2.28,0,0,0,.78.93,2.46,2.46,0,0,0,3.46-3.15,98.54,98.54,0,0,1-7.72-23.77,45.05,45.05,0,0,1,17.18,13.26c1.93,2.41,5.41-.89,3.49-3.28A49.58,49.58,0,0,0,325,418.65a259.54,259.54,0,0,1-2.59-27.92,87.79,87.79,0,0,1,21.87,22.62c1.7,2.54,6,.33,4.25-2.23a94.64,94.64,0,0,0-26.41-26.42c-.26-6-.5-12-.89-17.84-.23-3.53-.44-7.05-.65-10.57a2.15,2.15,0,0,0-.12-2.26c0-.18,0-.36,0-.53a64.75,64.75,0,0,1,23,24.28c1.49,2.71,5.73.47,4.25-2.23a70,70,0,0,0-27.53-27.82h0c-.2-4.08-.35-8.16-.48-12.25,0-1.5-.1-3-.13-4.5a385.06,385.06,0,0,1,1.28-44c.28-3.08-4.51-3.22-4.79-.16a399.21,399.21,0,0,0-1.1,50c.18,5.6.44,11.2.75,16.8C307.3,357.5,301.63,364.92,296.28,372.35Z"/><path class="cls-2" d="M65.72,132.59c-3-12.62-3-25.55-1.66-38.48a32,32,0,0,0-9.41,11.47c-1.37,2.78-5.55.43-4.19-2.32A36.65,36.65,0,0,1,64.49,88a1.83,1.83,0,0,1,.28-.14c1-7.48,2.23-14.93,3.47-22.3A48.6,48.6,0,0,0,49.33,80.86c-1.86,2.46-5.29-.9-3.45-3.33A53,53,0,0,1,69.16,60c.32-1.95.64-3.91.94-5.85q1-6.85,2.14-13.69c-7.24,2.24-13,7.17-18.74,12.25-2.29,2.05-5.75-1.27-3.45-3.32,6.83-6.11,14-12.12,23-14.13Q74.44,27,76,18.7a16.18,16.18,0,0,0-4.06,1.47,2.92,2.92,0,0,0-1,.34c-19.73,10.56-31,31.87-31.18,54a81.62,81.62,0,0,0,6.55,31.88c4.87,11.71,17.16,24,16.14,37.15-.21,2.61,3.34,4,5.17,2.58q-.84-6.2-1.29-12.42A2.16,2.16,0,0,1,65.72,132.59Z"/><path class="cls-3" d="M78.73,30.52a70,70,0,0,1,20.88,33.1c.87,3-3.76,4.23-4.62,1.26A64.85,64.85,0,0,0,77.75,36.21l-.09.52A2.17,2.17,0,0,1,77.29,39q-.84,5.22-1.64,10.46c-.89,5.78-2,11.67-3,17.61A94.57,94.57,0,0,1,92.74,98.53c1.12,2.87-3.51,4.12-4.62,1.26A87.93,87.93,0,0,0,71.64,73a259.77,259.77,0,0,0-3.5,27.82A49.56,49.56,0,0,1,86,120.67c1.36,2.74-2.75,5.21-4.12,2.44a44.9,44.9,0,0,0-13.91-16.65,98.78,98.78,0,0,0,2.41,24.87,2.46,2.46,0,0,1-4,2.33q.45,6.22,1.29,12.42A2.56,2.56,0,0,0,68.4,145c3-7.19,12.83-10.27,18.49-15.34a58.59,58.59,0,0,0,12.34-15.86c6.64-12.27,9-26.47,8.66-40.29-.33-14.48-2.83-30.16-10.25-42.81-3.77-6.44-9.92-11.57-16.75-12.28q-1.14,6-2.18,12.06Z"/><path class="cls-4" d="M73.08,35.27c-9.07,2-16.2,8-23,14.13-2.3,2.05,1.16,5.37,3.45,3.32,5.69-5.08,11.5-10,18.74-12.25q-1.09,6.84-2.14,13.69c-.3,1.94-.62,3.9-.94,5.85A53,53,0,0,0,45.88,77.53C44,80,47.47,83.32,49.33,80.86A48.6,48.6,0,0,1,68.24,65.58C67,73,65.73,80.4,64.77,87.88a1.83,1.83,0,0,0-.28.14,36.65,36.65,0,0,0-14,15.24c-1.36,2.75,2.82,5.1,4.19,2.32a32,32,0,0,1,9.41-11.47C62.76,107,62.7,120,65.72,132.59a2.16,2.16,0,0,0,.57,1.07,2.46,2.46,0,0,0,4-2.33,98.78,98.78,0,0,1-2.41-24.87,44.9,44.9,0,0,1,13.91,16.65c1.37,2.77,5.48.3,4.12-2.44a49.56,49.56,0,0,0-17.82-19.86A259.77,259.77,0,0,1,71.64,73a87.93,87.93,0,0,1,16.48,26.8c1.11,2.86,5.74,1.61,4.62-1.26A94.57,94.57,0,0,0,72.66,67c1-5.94,2.1-11.83,3-17.61q.8-5.24,1.64-10.46a2.17,2.17,0,0,0,.37-2.24l.09-.52A64.85,64.85,0,0,1,95,64.88c.86,3,5.49,1.7,4.62-1.26a70,70,0,0,0-20.88-33.1h0q1-6,2.18-12.06c.28-1.48.55-3,.84-4.43q1.39-7,3-14H79.81C78.41,6.21,77.15,12.44,76,18.7Q74.44,27,73.08,35.27Z"/><path class="cls-2" d="M163.89,3.4c-7.33-2.13-14.7-4.07-22.19-3q3.93,5.7,7.85,11.43c1.1,1.62,2.24,3.24,3.37,4.86a53,53,0,0,1,28.56,5.75c2.71,1.4,1.06,5.9-1.68,4.49a48.52,48.52,0,0,0-23.65-5.61c4.31,6.12,8.67,12.28,12.76,18.61h.32a36.67,36.67,0,0,1,19.23,7.69c2.43,1.89-.34,5.81-2.77,3.91a31.86,31.86,0,0,0-13.44-6.28C179,56.38,184.65,68,187.38,80.7a2.31,2.31,0,0,1,0,1.21c1.51,3.88,2.92,7.8,4.2,11.77,2.26.47,4.86-2.3,3.55-4.57-6.62-11.45-.83-27.8-1.5-40.47a81.91,81.91,0,0,0-7.86-31.58A66.13,66.13,0,0,0,173.68,0h-6.76A2.56,2.56,0,0,1,163.89,3.4Z"/><path class="cls-3" d="M123.83,45.67c5.69,12.61,13.93,24.4,25.22,32.6a59.09,59.09,0,0,0,18,9c7.3,2.12,17.53.63,23.31,5.84a2.5,2.5,0,0,0,1.19.6c-1.28-4-2.69-7.89-4.2-11.77a2.46,2.46,0,0,1-4.67-.35,98.38,98.38,0,0,0-8.57-23.47,45,45,0,0,0-5.35,21c0,3.09-4.81,2.64-4.77-.42a49.68,49.68,0,0,1,7.49-25.61,258.83,258.83,0,0,0-15.18-23.58A88.08,88.08,0,0,0,153,60.81c.23,3-4.49,3.93-4.72.86a94.71,94.71,0,0,1,4.5-37.08c-3.5-4.91-7-9.77-10.3-14.6q-3-4.36-6-8.72A2,2,0,0,1,135.32,0h-.79a64.85,64.85,0,0,0-2.8,32.29c.5,3.05-4.22,3.9-4.72.86A70,70,0,0,1,129.44,0H114.92c-.15.87-.27,1.75-.34,2.63C113.36,17.25,117.87,32.47,123.83,45.67Z"/><path class="cls-4" d="M127,33.15c.5,3,5.22,2.19,4.72-.86A64.85,64.85,0,0,1,134.53,0h-5.09A70,70,0,0,0,127,33.15Z"/><path class="cls-4" d="M136.49,1.27q3,4.35,6,8.72c3.3,4.83,6.8,9.69,10.3,14.6a94.71,94.71,0,0,0-4.5,37.08c.23,3.07,5,2.19,4.72-.86a88.08,88.08,0,0,1,3.27-31.3,258.83,258.83,0,0,1,15.18,23.58A49.68,49.68,0,0,0,164,78.7c0,3.06,4.73,3.51,4.77.42a45,45,0,0,1,5.35-21,98.38,98.38,0,0,1,8.57,23.47,2.46,2.46,0,0,0,4.67.35,2.31,2.31,0,0,0,0-1.21C184.65,68,179,56.38,172.25,45.29a31.86,31.86,0,0,1,13.44,6.28c2.43,1.9,5.2-2,2.77-3.91A36.67,36.67,0,0,0,169.23,40h-.32c-4.09-6.33-8.45-12.49-12.76-18.61A48.52,48.52,0,0,1,179.8,27c2.74,1.41,4.39-3.09,1.68-4.49a53,53,0,0,0-28.56-5.75c-1.13-1.62-2.27-3.24-3.37-4.86Q145.64,6.14,141.7.44c7.49-1.11,14.86.83,22.19,3a2.56,2.56,0,0,0,3-3.4h-31.6A2,2,0,0,0,136.49,1.27Z"/><path class="cls-2" d="M259.73,0h-8.66a31.69,31.69,0,0,0,3,12.58C255.79,8.3,257.66,4.09,259.73,0Z"/><path class="cls-2" d="M225.91,80.93a3.49,3.49,0,0,0,.75.78,15.86,15.86,0,0,0,2.92,3.16q2.47-8,5.13-16c-7.1-6-10.62-14.63-13.83-23.21-1.09-2.89,3.52-4.21,4.6-1.34,2.67,7.15,5.53,14.22,10.9,19.56q2.2-6.57,4.46-13.12c.64-1.86,1.26-3.74,1.89-5.61a53,53,0,0,1-12.48-26.34c-.49-3,4.11-4.38,4.61-1.34a48.66,48.66,0,0,0,9.64,22.31c2.33-7.1,4.67-14.29,7.29-21.35a2.93,2.93,0,0,1-.19-.26A36.72,36.72,0,0,1,246.29,0H237a77.92,77.92,0,0,0-13.59,18.66C213.28,38.31,213.35,62.42,225.91,80.93Z"/><path class="cls-3" d="M251,34.81a87.85,87.85,0,0,0,27-16.09c2.31-2,5.83,1.25,3.51,3.27A94.72,94.72,0,0,1,249.1,40.55c-1.84,5.75-3.65,11.45-5.55,17q-1.71,5-3.4,10a2.17,2.17,0,0,1-.71,2.16c-.05.17-.11.34-.16.5a64.77,64.77,0,0,0,28.58-17.38c2.15-2.22,5.65,1.05,3.51,3.27A69.94,69.94,0,0,1,237.5,75.7h0q-1.89,5.83-3.67,11.69c6.38,2.54,14.2.86,20.53-3.09,12.45-7.76,22-20.48,29-33.14,6.7-12.1,11.24-25.76,11.05-39.71A62.26,62.26,0,0,0,293.16,0h-8.49a49.65,49.65,0,0,1-23.88,8.54A257.75,257.75,0,0,0,251,34.81Z"/><path class="cls-3" d="M274.93,0H265c-.62,1.14-1.22,2.28-1.8,3.44A43.79,43.79,0,0,0,274.93,0Z"/><path class="cls-4" d="M251.79,18.43c-2.62,7.06-5,14.25-7.29,21.35a48.66,48.66,0,0,1-9.64-22.31c-.5-3-5.1-1.66-4.61,1.34a53,53,0,0,0,12.48,26.34c-.63,1.87-1.25,3.75-1.89,5.61q-2.25,6.56-4.46,13.12c-5.37-5.34-8.23-12.41-10.9-19.56-1.08-2.87-5.69-1.55-4.6,1.34,3.21,8.58,6.73,17.22,13.83,23.21q-2.66,8-5.13,16a401,401,0,0,0-12.07,48.53c-.54,3,4.13,4.15,4.66,1.11a381.6,381.6,0,0,1,10.33-42.8c.42-1.44.87-2.87,1.31-4.31q1.78-5.85,3.67-11.69h0a69.94,69.94,0,0,0,33.87-19.6c2.14-2.22-1.36-5.49-3.51-3.27a64.77,64.77,0,0,1-28.58,17.38c.05-.16.11-.33.16-.5a2.17,2.17,0,0,0,.71-2.16q1.68-5,3.4-10c1.9-5.53,3.71-11.23,5.55-17A94.72,94.72,0,0,0,281.51,22c2.32-2-1.2-5.28-3.51-3.27a87.85,87.85,0,0,1-27,16.09,257.75,257.75,0,0,1,9.83-26.27A49.65,49.65,0,0,0,284.67,0h-9.74a43.79,43.79,0,0,1-11.71,3.44c.58-1.16,1.18-2.3,1.8-3.44h-5.29c-2.07,4.09-3.94,8.3-5.67,12.58a31.69,31.69,0,0,1-3-12.58h-4.78a36.72,36.72,0,0,0,5.31,18.17A2.93,2.93,0,0,0,251.79,18.43Z"/><path class="cls-2" d="M378.72,30.51c4.17,21.7,19.09,40.64,40.39,47.47a3.45,3.45,0,0,0,1.07.15,16.79,16.79,0,0,0,4.26.71c-2-5.24-3.94-10.5-5.84-15.78-9.28-.34-17.38-5-25.2-9.74-2.63-1.61.18-5.49,2.8-3.89,6.51,4,13.12,7.77,20.64,8.67q-2.31-6.52-4.58-13.08c-.64-1.86-1.31-3.72-2-5.58a53.08,53.08,0,0,1-26-13c-2.25-2.06.53-6,2.8-3.9a48.54,48.54,0,0,0,21.35,11.62c-2.55-7-5.14-14.13-7.43-21.31a2,2,0,0,1-.31-.08A36.75,36.75,0,0,1,384.1.27a1.91,1.91,0,0,1-.16-.27H379A80.91,80.91,0,0,0,378.72,30.51Z"/><path class="cls-2" d="M399.13,6.81q-1-3.39-1.83-6.81h-7.19A31.65,31.65,0,0,0,399.13,6.81Z"/><path class="cls-3" d="M421.09,0h-19a261.42,261.42,0,0,0,8.32,26.22A87.87,87.87,0,0,0,421.09,0Z"/><path class="cls-3" d="M418.57,48.68q1.74,5,3.51,10a2.17,2.17,0,0,1,.77,2.13l.18.5A64.89,64.89,0,0,0,434.81,30c.32-3.08,5.1-2.66,4.78.4A70,70,0,0,1,425,66.71s0,0,0,0c1.4,3.84,2.85,7.66,4.32,11.47,6.59-1.93,11.71-8.09,14.26-15.1,5-13.78,4.65-29.65,2.37-43.95A95.08,95.08,0,0,0,440.87,0H426a94.48,94.48,0,0,1-13.48,31.89C414.56,37.55,416.66,43.15,418.57,48.68Z"/><path class="cls-4" d="M400.64,12.73a2,2,0,0,0,.31.08c2.29,7.18,4.88,14.28,7.43,21.31A48.54,48.54,0,0,1,387,22.5c-2.27-2.08-5,1.84-2.8,3.9a53.08,53.08,0,0,0,26,13c.67,1.86,1.34,3.72,2,5.58q2.26,6.56,4.58,13.08c-7.52-.9-14.13-4.7-20.64-8.67-2.62-1.6-5.43,2.28-2.8,3.89,7.82,4.77,15.92,9.4,25.2,9.74,1.9,5.28,3.83,10.54,5.84,15.78a401.55,401.55,0,0,0,20.41,45.63c1.45,2.71,5.81.72,4.36-2A384.78,384.78,0,0,1,430.94,82.4c-.55-1.39-1.08-2.8-1.62-4.2-1.47-3.81-2.92-7.63-4.32-11.47,0,0,0,0,0,0a70,70,0,0,0,14.57-36.32c.32-3.06-4.46-3.48-4.78-.4A64.89,64.89,0,0,1,423,61.3l-.18-.5a2.17,2.17,0,0,0-.77-2.13q-1.77-5-3.51-10c-1.91-5.53-4-11.13-6.1-16.79A94.48,94.48,0,0,0,426,0h-4.86a87.87,87.87,0,0,1-10.7,26.22A261.42,261.42,0,0,1,402.07,0H397.3q.84,3.42,1.83,6.81a31.65,31.65,0,0,1-9-6.81h-6.17a1.91,1.91,0,0,0,.16.27A36.75,36.75,0,0,0,400.64,12.73Z"/><path class="cls-2" d="M67,222.63c-.71-3,4-3.73,4.73-.74,1.74,7.43,3.67,14.8,8.32,20.78q3-6.22,6.1-12.44,1.3-2.64,2.58-5.33a53,53,0,0,1-9-27.7c-.1-3,4.63-3.83,4.74-.75a48.53,48.53,0,0,0,6.72,23.36c3.22-6.75,6.45-13.58,10-20.25a2.4,2.4,0,0,1-.16-.27,36.73,36.73,0,0,1-2.74-20.53c.46-3,5.23-2.56,4.76.5a32.09,32.09,0,0,0,1.13,14.79c6.35-11.33,13.73-22,23.43-30.57a2.25,2.25,0,0,1,1.08-.54q4-4.84,8.2-9.43c-.7-2.21-4.4-3.11-5.73-.86C124.41,164,107.32,167,96.61,173.82A81.72,81.72,0,0,0,73,196.17c-12.51,18.2-15.52,42.12-5.43,62.08a3.44,3.44,0,0,0,.64.87,16.16,16.16,0,0,0,2.5,3.51c2.31-5.1,4.7-10.16,7.12-15.22C71.51,240.57,69.12,231.55,67,222.63Z"/><path class="cls-3" d="M130.66,167.17a98.5,98.5,0,0,0-16.25,19,45,45,0,0,0,21-5.66c2.71-1.48,4.66,2.9,2,4.37a49.64,49.64,0,0,1-26,6,258.07,258.07,0,0,0-13.1,24.8,88,88,0,0,0,28.87-12.5c2.55-1.7,5.63,2,3.07,3.68a94.52,94.52,0,0,1-34.52,14.27c-2.56,5.47-5.07,10.9-7.67,16.14q-2.34,4.76-4.65,9.51a2.17,2.17,0,0,1-1,2l-.22.48a64.91,64.91,0,0,0,30.56-13.6c2.42-1.93,5.48,1.76,3.07,3.69a70.12,70.12,0,0,1-36.09,15.13h0c-1.75,3.69-3.45,7.41-5.13,11.13,6,3.33,14,2.66,20.76-.45,13.34-6.11,24.38-17.51,33-29.18,8.19-11.14,14.43-24.11,16-38a58.86,58.86,0,0,0-1-20.07c-1.74-7.41-8.06-15.59-6.35-23.17a2.68,2.68,0,0,0-.06-1.33q-4.25,4.58-8.2,9.43A2.46,2.46,0,0,1,130.66,167.17Z"/><path class="cls-4" d="M79.66,254.55h0a70.12,70.12,0,0,0,36.09-15.13c2.41-1.93-.65-5.62-3.07-3.69a64.91,64.91,0,0,1-30.56,13.6l.22-.48a2.17,2.17,0,0,0,1-2Q85.66,242,88,237.29c2.6-5.24,5.11-10.67,7.67-16.14a94.52,94.52,0,0,0,34.52-14.27c2.56-1.7-.52-5.38-3.07-3.68a88,88,0,0,1-28.87,12.5,258.07,258.07,0,0,1,13.1-24.8,49.64,49.64,0,0,0,26-6c2.69-1.47.74-5.85-2-4.37a45,45,0,0,1-21,5.66,98.5,98.5,0,0,1,16.25-19,2.46,2.46,0,0,0-2-4.23,2.25,2.25,0,0,0-1.08.54c-9.7,8.61-17.08,19.24-23.43,30.57A32.09,32.09,0,0,1,103,179.26c.47-3.06-4.3-3.55-4.76-.5A36.73,36.73,0,0,0,101,199.29a2.4,2.4,0,0,0,.16.27c-3.51,6.67-6.74,13.5-10,20.25a48.53,48.53,0,0,1-6.72-23.36c-.11-3.08-4.84-2.3-4.74.75a53,53,0,0,0,9,27.7q-1.28,2.68-2.58,5.33-3.08,6.21-6.1,12.44c-4.65-6-6.58-13.35-8.32-20.78-.7-3-5.44-2.26-4.73.74,2.09,8.92,4.48,17.94,10.75,24.78-2.42,5.06-4.81,10.12-7.12,15.22a401,401,0,0,0-18.17,46.59c-.91,2.94,3.57,4.65,4.49,1.69a384.9,384.9,0,0,1,15.7-41.13c.6-1.37,1.23-2.73,1.85-4.1C76.21,262,77.91,258.24,79.66,254.55Z"/><path class="cls-2" d="M140.54,308.39a16.2,16.2,0,0,0-3.07-3q-2.1,8.13-4.38,16.22c7.37,5.65,11.3,14.11,14.9,22.54,1.22,2.83-3.32,4.37-4.53,1.55-3-7-6.19-13.94-11.8-19q-1.91,6.66-3.85,13.31c-.55,1.88-1.08,3.79-1.62,5.69a53,53,0,0,1,13.69,25.72c.63,3-3.9,4.57-4.54,1.56a48.56,48.56,0,0,0-10.68-21.84c-2,7.21-4,14.49-6.28,21.67a2.43,2.43,0,0,1,.2.25,36.8,36.8,0,0,1,6.27,19.74c.07,3.08-4.72,3.43-4.79.34a32,32,0,0,0-3.67-14.38c-4.29,12.27-9.71,24-17.77,34.17a2.25,2.25,0,0,1-1,.73c-2,3.63-4.18,7.21-6.43,10.71,1.07,2.05,4.86,2.3,5.78-.16,4.65-12.37,21-18.28,30.33-26.83a81.66,81.66,0,0,0,19.42-26.12c9.17-20.1,8-44.18-5.43-62.09A3.61,3.61,0,0,0,140.54,308.39Z"/><path class="cls-3" d="M95,409.79a98.3,98.3,0,0,0,12.7-21.51A44.92,44.92,0,0,0,88,397.48c-2.41,1.93-5.09-2-2.7-4a49.61,49.61,0,0,1,24.54-10.45,257.14,257.14,0,0,0,8.6-26.7A88.11,88.11,0,0,0,92.19,373.7c-2.22,2.12-5.89-1-3.66-3.1a94.37,94.37,0,0,1,31.51-20c1.57-5.83,3.1-11.62,4.75-17.23q1.48-5.08,2.93-10.17a2.17,2.17,0,0,1,.61-2.19c0-.17.09-.34.14-.51a64.91,64.91,0,0,0-27.75,18.7c-2,2.32-5.69-.79-3.66-3.1A70,70,0,0,1,130,314.89h0c1.08-3.94,2.11-7.9,3.12-11.85-6.49-2.25-14.23-.19-20.37,4-12.08,8.34-21,21.48-27.39,34.46-6.13,12.4-10,26.26-9.19,40.18a58.9,58.9,0,0,0,4.47,19.59c3,7,10.64,13.95,10.28,21.72a2.52,2.52,0,0,0,.29,1.3c2.25-3.5,4.39-7.08,6.43-10.71A2.46,2.46,0,0,1,95,409.79Z"/><path class="cls-4" d="M130,314.89a70,70,0,0,0-32.92,21.17c-2,2.31,1.62,5.42,3.66,3.1a64.91,64.91,0,0,1,27.75-18.7c-.05.17-.1.34-.14.51a2.17,2.17,0,0,0-.61,2.19q-1.45,5.08-2.93,10.17c-1.65,5.61-3.18,11.4-4.75,17.23a94.37,94.37,0,0,0-31.51,20c-2.23,2.13,1.44,5.22,3.66,3.1a88.11,88.11,0,0,1,26.26-17.33,257.14,257.14,0,0,1-8.6,26.7,49.61,49.61,0,0,0-24.54,10.45c-2.39,1.92.29,5.89,2.7,4a44.92,44.92,0,0,1,19.65-9.2A98.3,98.3,0,0,1,95,409.79a2.46,2.46,0,0,0,2.69,3.83,2.25,2.25,0,0,0,1-.73c8.06-10.16,13.48-21.9,17.77-34.17a32,32,0,0,1,3.67,14.38c.07,3.09,4.86,2.74,4.79-.34A36.8,36.8,0,0,0,118.58,373a2.43,2.43,0,0,0-.2-.25c2.29-7.18,4.29-14.46,6.28-21.67a48.56,48.56,0,0,1,10.68,21.84c.64,3,5.17,1.43,4.54-1.56a53,53,0,0,0-13.69-25.72c.54-1.9,1.07-3.81,1.62-5.69q2-6.66,3.85-13.31c5.61,5.08,8.79,12,11.8,19,1.21,2.82,5.75,1.28,4.53-1.55-3.6-8.43-7.53-16.89-14.9-22.54q2.28-8.1,4.38-16.22a400.28,400.28,0,0,0,9.8-49c.39-3-4.32-4-4.71-.89a386.15,386.15,0,0,1-8.32,43.23c-.36,1.46-.74,2.91-1.11,4.37-1,3.95-2,7.91-3.12,11.85Z"/><path class="cls-2" d="M343.23,213.62a16.2,16.2,0,0,0,2.93,3.16q2.46-8,5.11-16c-7.1-6-10.64-14.62-13.86-23.19-1.08-2.89,3.53-4.22,4.6-1.35,2.69,7.14,5.55,14.21,10.92,19.54q2.2-6.57,4.46-13.12c.63-1.86,1.25-3.74,1.87-5.62a53,53,0,0,1-12.5-26.32c-.5-3,4.1-4.38,4.6-1.34a48.77,48.77,0,0,0,9.67,22.3c2.32-7.11,4.65-14.3,7.27-21.36-.06-.09-.13-.16-.19-.26a36.69,36.69,0,0,1-5.36-20c.07-3.08,4.87-3.21,4.79-.12a32.07,32.07,0,0,0,3,14.52c4.85-12.05,10.79-23.54,19.31-33.32a2.32,2.32,0,0,1,1-.68q3.3-5.31,6.91-10.41c-1-2.09-4.75-2.51-5.78-.11-5.21,12.16-21.78,17.31-31.52,25.43a81.58,81.58,0,0,0-20.59,25.21c-10.08,19.66-10,43.76,2.6,62.27A3.21,3.21,0,0,0,343.23,213.62Z"/><path class="cls-3" d="M393.38,114.4a99,99,0,0,0-13.67,20.92,45,45,0,0,0,20.05-8.3c2.5-1.82,5,2.27,2.52,4.07a49.56,49.56,0,0,1-25,9.33,260.19,260.19,0,0,0-9.81,26.28,88,88,0,0,0,27-16.12c2.31-2,5.83,1.24,3.51,3.27a94.61,94.61,0,0,1-32.39,18.59c-1.83,5.75-3.63,11.46-5.53,17q-1.71,5-3.39,10a2.17,2.17,0,0,1-.71,2.16c-.05.17-.1.34-.16.5a64.8,64.8,0,0,0,28.57-17.41c2.14-2.22,5.65,1,3.51,3.26a70,70,0,0,1-33.85,19.65h0c-1.26,3.89-2.47,7.79-3.66,11.7,6.38,2.53,14.21.84,20.53-3.11,12.44-7.78,21.93-20.51,28.93-33.18,6.7-12.11,11.21-25.77,11-39.72a58.71,58.71,0,0,0-3.57-19.77c-2.67-7.12-10-14.42-9.28-22.17a2.46,2.46,0,0,0-.23-1.31q-3.61,5.1-6.91,10.41A2.45,2.45,0,0,1,393.38,114.4Z"/><path class="cls-4" d="M354.07,207.61A70,70,0,0,0,387.92,188c2.14-2.22-1.37-5.48-3.51-3.26a64.8,64.8,0,0,1-28.57,17.41c.06-.16.11-.33.16-.5a2.17,2.17,0,0,0,.71-2.16q1.68-5,3.39-10c1.9-5.53,3.7-11.24,5.53-17A94.61,94.61,0,0,0,398,153.85c2.32-2-1.2-5.28-3.51-3.27a88,88,0,0,1-27,16.12,260.19,260.19,0,0,1,9.81-26.28,49.56,49.56,0,0,0,25-9.33c2.48-1.8,0-5.89-2.52-4.07a45,45,0,0,1-20.05,8.3,99,99,0,0,1,13.67-20.92,2.45,2.45,0,0,0-2.51-3.94,2.32,2.32,0,0,0-1,.68c-8.52,9.78-14.46,21.27-19.31,33.32a32.07,32.07,0,0,1-3-14.52c.08-3.09-4.72-3-4.79.12a36.69,36.69,0,0,0,5.36,20c.06.1.13.17.19.26-2.62,7.06-4.95,14.25-7.27,21.36a48.77,48.77,0,0,1-9.67-22.3c-.5-3-5.1-1.66-4.6,1.34A53,53,0,0,0,359.26,177c-.62,1.88-1.24,3.76-1.87,5.62q-2.26,6.56-4.46,13.12c-5.37-5.33-8.23-12.4-10.92-19.54-1.07-2.87-5.68-1.54-4.6,1.35,3.22,8.57,6.76,17.21,13.86,23.19q-2.64,8-5.11,16a399.74,399.74,0,0,0-12,48.55c-.53,3,4.13,4.14,4.66,1.1a386,386,0,0,1,10.28-42.81c.43-1.44.87-2.87,1.31-4.31,1.19-3.91,2.4-7.81,3.66-11.7Z"/><path class="cls-2" d="M13,402.26c.09-.06.19-.09.28-.14,1-7.47,2.23-14.92,3.47-22.29A48.21,48.21,0,0,0,0,392.43v23.16A36.67,36.67,0,0,1,13,402.26Z"/><path class="cls-2" d="M18.61,368.41q1-6.86,2.14-13.7C13.51,357,7.7,361.88,2,367a2.33,2.33,0,0,1-2,.59v17.93a53.61,53.61,0,0,1,17.67-11.24C18,372.3,18.31,370.34,18.61,368.41Z"/><path class="cls-2" d="M24.49,333a16.15,16.15,0,0,0-4.06,1.46,3.4,3.4,0,0,0-1,.34A56.8,56.8,0,0,0,0,351.91v10.45c6.4-5.65,13.16-11,21.59-12.85Q23,341.22,24.49,333Z"/><path class="cls-2" d="M10.92,457.74c-.21,2.61,3.34,4,5.17,2.59q-.84-6.19-1.29-12.43a2.12,2.12,0,0,1-.57-1.07c-3-12.61-3-25.55-1.66-38.47a31.82,31.82,0,0,0-9.41,11.47,2.14,2.14,0,0,1-3.16.88v9.6C5.36,439.06,11.66,448.15,10.92,457.74Z"/><path class="cls-3" d="M27.24,344.77a69.91,69.91,0,0,1,20.88,33.1c.87,2.95-3.76,4.22-4.62,1.26a64.88,64.88,0,0,0-17.24-28.68l-.09.52a2.17,2.17,0,0,1-.37,2.24q-.84,5.22-1.65,10.46c-.88,5.78-1.94,11.67-3,17.62a94.47,94.47,0,0,1,20.08,31.49c1.12,2.86-3.51,4.11-4.62,1.26a88,88,0,0,0-16.48-26.81,260,260,0,0,0-3.5,27.83,49.53,49.53,0,0,1,17.82,19.85c1.36,2.75-2.75,5.21-4.12,2.44A45,45,0,0,0,16.44,420.7a98.73,98.73,0,0,0,2.41,24.87,2.46,2.46,0,0,1-4.05,2.33q.45,6.24,1.29,12.43a2.53,2.53,0,0,0,.82-1.06c3-7.19,12.82-10.26,18.49-15.33a58.9,58.9,0,0,0,12.34-15.86c6.64-12.27,9-26.47,8.66-40.3-.33-14.48-2.83-30.15-10.25-42.81-3.77-6.44-9.92-11.57-16.75-12.28q-1.14,6-2.18,12.06Z"/><path class="cls-4" d="M3.16,419.83a31.82,31.82,0,0,1,9.41-11.47c-1.3,12.92-1.36,25.86,1.66,38.47a2.12,2.12,0,0,0,.57,1.07,2.46,2.46,0,0,0,4.05-2.33,98.73,98.73,0,0,1-2.41-24.87,45,45,0,0,1,13.91,16.65c1.37,2.77,5.48.31,4.12-2.44a49.53,49.53,0,0,0-17.82-19.85,260,260,0,0,1,3.5-27.83A88,88,0,0,1,36.63,414c1.11,2.85,5.74,1.6,4.62-1.26a94.47,94.47,0,0,0-20.08-31.49c1-6,2.1-11.84,3-17.62q.81-5.24,1.65-10.46a2.17,2.17,0,0,0,.37-2.24l.09-.52A64.88,64.88,0,0,1,43.5,379.13c.86,3,5.49,1.69,4.62-1.26a69.91,69.91,0,0,0-20.88-33.1l0,0q1-6,2.18-12.06c.28-1.47.55-2.95.84-4.42A386.53,386.53,0,0,1,41,285.57c.94-2.94-3.71-4.12-4.65-1.19A402.55,402.55,0,0,0,24.49,333q-1.54,8.25-2.9,16.56C13.16,351.38,6.4,356.71,0,362.36v5.2A2.33,2.33,0,0,0,2,367c5.69-5.09,11.5-10,18.74-12.26q-1.09,6.84-2.14,13.7c-.3,1.93-.62,3.89-.94,5.84A53.61,53.61,0,0,0,0,385.49v6.94a48.21,48.21,0,0,1,16.75-12.6c-1.24,7.37-2.51,14.82-3.47,22.29-.09.05-.19.08-.28.14A36.67,36.67,0,0,0,0,415.59v5.12A2.14,2.14,0,0,0,3.16,419.83Z"/><path class="cls-2" d="M378.57,350.45a2.14,2.14,0,0,1-.44-1.13c-1.48-12.89.14-25.72,3-38.39a31.91,31.91,0,0,0-10.72,10.25c-1.69,2.59-5.56-.24-3.88-2.81a36.71,36.71,0,0,1,15.76-13.45l.3-.1c1.84-7.31,4-14.55,6.12-21.72A48.62,48.62,0,0,0,368.08,296c-2.14,2.22-5.14-1.52-3-3.71a52.94,52.94,0,0,1,25.22-14.6c.55-1.9,1.11-3.8,1.63-5.69,1.25-4.45,2.5-8.9,3.78-13.34-7.45,1.35-13.82,5.55-20.08,9.91-2.51,1.76-5.55-1.95-3-3.71,7.51-5.24,15.32-10.36,24.56-11.26,1.57-5.38,3.18-10.75,4.87-16.1a16.5,16.5,0,0,0-4.21,1,3.24,3.24,0,0,0-1.06.22c-20.85,8.11-34.59,27.91-37.43,49.82A81.76,81.76,0,0,0,362,320.94c3.42,12.21,14.15,25.85,11.55,38.81-.51,2.57,2.84,4.36,4.83,3.19Q378.27,356.68,378.57,350.45Z"/><path class="cls-3" d="M413.65,334.73c8.07-11.38,12.1-25.2,13.45-39,1.41-14.41.81-30.27-5-43.73-3-6.84-8.46-12.67-15.15-14.2q-1.86,5.83-3.62,11.71l0,0a70,70,0,0,1,16.75,35.37c.5,3-4.24,3.74-4.74.69a65,65,0,0,0-13.67-30.54l-.15.51a2.19,2.19,0,0,1-.64,2.18Q399.42,262.86,398,268c-1.57,5.64-3.33,11.36-5.07,17.13a94.59,94.59,0,0,1,16.14,33.68c.77,3-4,3.66-4.74.7a88,88,0,0,0-13.13-28.6,259.37,259.37,0,0,0-6.82,27.2,49.66,49.66,0,0,1,15.3,21.86c1,2.89-3.36,4.84-4.38,1.93a45,45,0,0,0-11.81-18.21,98.68,98.68,0,0,0-.6,25,2.45,2.45,0,0,1-4.3,1.82q-.3,6.24-.21,12.49a2.52,2.52,0,0,0,.94-.95c3.8-6.78,14-8.65,20.2-13A58.61,58.61,0,0,0,413.65,334.73Z"/><path class="cls-4" d="M372.58,264.85c-2.53,1.76.51,5.47,3,3.71,6.26-4.36,12.63-8.56,20.08-9.91-1.28,4.44-2.53,8.89-3.78,13.34-.52,1.89-1.08,3.79-1.63,5.69a52.94,52.94,0,0,0-25.22,14.6c-2.11,2.19.89,5.93,3,3.71a48.62,48.62,0,0,1,20.61-12.89c-2.12,7.17-4.28,14.41-6.12,21.72l-.3.1a36.71,36.71,0,0,0-15.76,13.45c-1.68,2.57,2.19,5.4,3.88,2.81a31.91,31.91,0,0,1,10.72-10.25c-2.84,12.67-4.46,25.5-3,38.39a2.14,2.14,0,0,0,.44,1.13,2.45,2.45,0,0,0,4.3-1.82,98.68,98.68,0,0,1,.6-25,45,45,0,0,1,11.81,18.21c1,2.91,5.4,1,4.38-1.93a49.66,49.66,0,0,0-15.3-21.86,259.37,259.37,0,0,1,6.82-27.2,88,88,0,0,1,13.13,28.6c.76,3,5.51,2.28,4.74-.7a94.59,94.59,0,0,0-16.14-33.68c1.74-5.77,3.5-11.49,5.07-17.13q1.42-5.1,2.89-10.18a2.19,2.19,0,0,0,.64-2.18l.15-.51a65,65,0,0,1,13.67,30.54c.5,3.05,5.24,2.35,4.74-.69a70,70,0,0,0-16.75-35.37l0,0q1.76-5.88,3.62-11.71c.45-1.43.9-2.86,1.36-4.29a385.49,385.49,0,0,1,15.8-41.1c1.29-2.81-3.18-4.53-4.47-1.73A399.66,399.66,0,0,0,402,237.49c-1.69,5.35-3.3,10.72-4.87,16.1C387.9,254.49,380.09,259.61,372.58,264.85Z"/><path class="cls-2" d="M4.29,312.73c1,4,1.93,8.1,2.7,12.2,2.18.75,5.11-1.68,4.09-4.1-5.13-12.18,2.65-27.68,3.56-40.34a81.54,81.54,0,0,0-3.86-32.31A65.8,65.8,0,0,0,0,228.5v21A52.57,52.57,0,0,1,5.91,253c2.51,1.72.31,6-2.23,4.24C2.48,256.45,1.25,255.7,0,255v16.9a36.55,36.55,0,0,1,9.69,7c2.17,2.19-1.06,5.73-3.24,3.53A32.66,32.66,0,0,0,0,277.34v12.82a97,97,0,0,1,4.49,21.37A2.29,2.29,0,0,1,4.29,312.73Z"/><path class="cls-3" d="M5.88,324.18a2.55,2.55,0,0,0,1.11.75c-.77-4.1-1.68-8.16-2.7-12.2a2.5,2.5,0,0,1-4.29.06v7.44A15,15,0,0,1,5.88,324.18Z"/><path class="cls-4" d="M5.91,253A52.57,52.57,0,0,0,0,249.51V255c1.25.72,2.48,1.47,3.68,2.29C6.22,259,8.42,254.75,5.91,253Z"/><path class="cls-4" d="M9.69,278.88a36.55,36.55,0,0,0-9.69-7v5.46a32.66,32.66,0,0,1,6.45,5.07C8.63,284.61,11.86,281.07,9.69,278.88Z"/><path class="cls-4" d="M4.29,312.73a2.29,2.29,0,0,0,.2-1.2A97,97,0,0,0,0,290.16v22.63A2.5,2.5,0,0,0,4.29,312.73Z"/><path class="cls-2" d="M313.8,167.63c2.4,1.94-.9,5.42-3.28,3.49-5.93-4.8-12-9.44-19.32-11.32q1.43,6.78,2.81,13.57c.39,1.92.81,3.86,1.23,5.79a53.07,53.07,0,0,1,24.11,16.36c1.95,2.34-1.31,5.86-3.29,3.49a48.71,48.71,0,0,0-19.63-14.33c1.6,7.31,3.23,14.68,4.55,22.1a1.51,1.51,0,0,1,.29.13A36.73,36.73,0,0,1,316,221.44c1.5,2.69-2.57,5.23-4.07,2.53a31.92,31.92,0,0,0-10-11c1.93,12.84,2.62,25.76.23,38.51a2.32,2.32,0,0,1-.52,1.09c-.1,4.17-.33,8.32-.69,12.48,1.91,1.31,5.38-.24,5.05-2.84-1.67-13.12,10-26,14.3-37.89a81.81,81.81,0,0,0,5-32.16c-1.28-22.06-13.56-42.8-33.78-52.38a3.54,3.54,0,0,0-1-.29,16.27,16.27,0,0,0-4.13-1.26c1.3,5.45,2.52,10.92,3.71,16.41C299.26,156.21,306.68,161.86,313.8,167.63Z"/><path class="cls-3" d="M267.84,234.39a58.7,58.7,0,0,0,13.1,15.24c5.91,4.79,15.91,7.37,19.22,14.41a2.56,2.56,0,0,0,.86,1c.36-4.16.59-8.31.69-12.48a2.46,2.46,0,0,1-4.16-2.13,98.77,98.77,0,0,0,1.19-25,45,45,0,0,0-13.08,17.32c-1.23,2.83-5.46.57-4.24-2.24a49.63,49.63,0,0,1,16.83-20.7,259.41,259.41,0,0,0-4.86-27.63,87.94,87.94,0,0,0-15.14,27.59c-1,2.9-5.66,1.88-4.68-1a94.35,94.35,0,0,1,18.51-32.44c-1.33-5.89-2.67-11.72-3.84-17.45-.71-3.46-1.42-6.91-2.16-10.36a2.19,2.19,0,0,1-.48-2.22c0-.17-.07-.35-.11-.52a64.92,64.92,0,0,0-15.81,29.49c-.72,3-5.4,2-4.68-1a70,70,0,0,1,19.23-34.08l0,0q-1.33-6-2.77-11.94c-6.79,1.05-12.68,6.48-16.13,13.09-6.79,13-8.52,28.78-8.14,43.26C257.57,208.4,260.6,222.47,267.84,234.39Z"/><path class="cls-4" d="M284.23,150.18A70,70,0,0,0,265,184.26c-.72,3,4,4,4.68,1a64.92,64.92,0,0,1,15.81-29.49c0,.17.08.35.11.52a2.19,2.19,0,0,0,.48,2.22c.74,3.45,1.45,6.9,2.16,10.36,1.17,5.73,2.51,11.56,3.84,17.45a94.35,94.35,0,0,0-18.51,32.44c-1,2.91,3.71,3.93,4.68,1a87.94,87.94,0,0,1,15.14-27.59,259.41,259.41,0,0,1,4.86,27.63,49.63,49.63,0,0,0-16.83,20.7c-1.22,2.81,3,5.07,4.24,2.24a45,45,0,0,1,13.08-17.32,98.77,98.77,0,0,1-1.19,25,2.46,2.46,0,0,0,4.16,2.13,2.32,2.32,0,0,0,.52-1.09c2.39-12.75,1.7-25.67-.23-38.51a31.92,31.92,0,0,1,10,11c1.5,2.7,5.57.16,4.07-2.53a36.73,36.73,0,0,0-14.76-14.53,1.51,1.51,0,0,0-.29-.13c-1.32-7.42-3-14.79-4.55-22.1A48.71,48.71,0,0,1,316.06,199c2,2.37,5.24-1.15,3.29-3.49a53.07,53.07,0,0,0-24.11-16.36c-.42-1.93-.84-3.87-1.23-5.79q-1.38-6.8-2.81-13.57c7.34,1.88,13.39,6.52,19.32,11.32,2.38,1.93,5.68-1.55,3.28-3.49-7.12-5.77-14.54-11.42-23.69-13-1.19-5.49-2.41-11-3.71-16.41a398.11,398.11,0,0,0-14.22-47.92c-1.08-2.88-5.66-1.49-4.58,1.41a383.88,383.88,0,0,1,12.82,42.12c.37,1.45.71,2.91,1.06,4.37q1.42,6,2.77,11.94Z"/><path class="cls-2" d="M211.64,172.12c2.44,1.9-.78,5.44-3.21,3.56-6-4.67-12.17-9.18-19.55-10.91q1.58,6.75,3.1,13.51c.43,1.91.89,3.84,1.34,5.77a53,53,0,0,1,24.45,15.85c2,2.3-1.19,5.88-3.21,3.56a48.64,48.64,0,0,0-19.93-13.92c1.75,7.27,3.54,14.61,5,22l.29.12A36.72,36.72,0,0,1,215,225.88c1.55,2.66-2.46,5.29-4,2.62a31.94,31.94,0,0,0-10.19-10.79c2.2,12.81,3.16,25.7,1,38.5a2.41,2.41,0,0,1-.49,1.11q0,6.24-.43,12.48c1.93,1.27,5.37-.35,5-2.94-1.94-13.08,9.46-26.16,13.5-38.18a81.69,81.69,0,0,0,4.31-32.26c-1.74-22-14.46-42.5-34.87-51.65a3.26,3.26,0,0,0-1.05-.27,16.24,16.24,0,0,0-4.15-1.18q2.12,8.13,4.05,16.32C196.86,161,204.4,166.51,211.64,172.12Z"/><path class="cls-3" d="M180.5,254.8c6,4.66,16.07,7,19.53,14a2.51,2.51,0,0,0,.88,1q.41-6.24.43-12.48a2.46,2.46,0,0,1-4.21-2,98.94,98.94,0,0,0,.67-25,44.89,44.89,0,0,0-12.72,17.58c-1.17,2.86-5.45.69-4.28-2.15a49.52,49.52,0,0,1,16.39-21,260.7,260.7,0,0,0-5.44-27.51,88.08,88.08,0,0,0-14.56,27.89c-.91,2.93-5.62,2-4.7-.93a94.46,94.46,0,0,1,17.83-32.82c-1.46-5.86-2.92-11.66-4.21-17.37q-1.17-5.16-2.37-10.31a2.18,2.18,0,0,1-.53-2.21l-.12-.51a64.77,64.77,0,0,0-15.19,29.81c-.66,3-5.36,2.07-4.7-.94a70,70,0,0,1,18.51-34.48h0c-1-4-2-7.93-3-11.88-6.76,1.19-12.54,6.74-15.85,13.42-6.52,13.14-7.92,28.95-7.23,43.42.65,13.82,4,27.82,11.46,39.59A58.73,58.73,0,0,0,180.5,254.8Z"/><path class="cls-4" d="M181.71,155.3a70,70,0,0,0-18.51,34.48c-.66,3,4,4,4.7.94a64.77,64.77,0,0,1,15.19-29.81l.12.51a2.18,2.18,0,0,0,.53,2.21q1.2,5.15,2.37,10.31c1.29,5.71,2.75,11.51,4.21,17.37a94.46,94.46,0,0,0-17.83,32.82c-.92,2.94,3.79,3.86,4.7.93a88.08,88.08,0,0,1,14.56-27.89,260.7,260.7,0,0,1,5.44,27.51,49.52,49.52,0,0,0-16.39,21c-1.17,2.84,3.11,5,4.28,2.15A44.89,44.89,0,0,1,197.8,230.3a98.94,98.94,0,0,1-.67,25,2.46,2.46,0,0,0,4.21,2,2.41,2.41,0,0,0,.49-1.11c2.12-12.8,1.16-25.69-1-38.5A31.94,31.94,0,0,1,211,228.5c1.56,2.67,5.57,0,4-2.62a36.72,36.72,0,0,0-15.06-14.22l-.29-.12c-1.48-7.39-3.27-14.73-5-22a48.64,48.64,0,0,1,19.93,13.92c2,2.32,5.21-1.26,3.21-3.56a53,53,0,0,0-24.45-15.85c-.45-1.93-.91-3.86-1.34-5.77q-1.53-6.76-3.1-13.51c7.38,1.73,13.52,6.24,19.55,10.91,2.43,1.88,5.65-1.66,3.21-3.56-7.24-5.61-14.78-11.11-24-12.48q-2-8.17-4.05-16.32A402.37,402.37,0,0,0,168.41,95.7c-1.14-2.85-5.7-1.36-4.55,1.51a385,385,0,0,1,13.7,41.84c.39,1.45.77,2.91,1.15,4.36,1,4,2,7.9,3,11.88Z"/><path class="cls-2" d="M22.12,215.22a16.79,16.79,0,0,0,4.26.71c-2-5.24-3.94-10.5-5.84-15.78-7.45-.27-14.14-3.31-20.54-7v9.58a56.7,56.7,0,0,0,21.05,12.31A3.45,3.45,0,0,0,22.12,215.22Z"/><path class="cls-2" d="M14.2,182.1c-.64-1.85-1.31-3.71-2-5.57A56.36,56.36,0,0,1,0,172.65v15c5.92,3.55,12,6.74,18.78,7.55Q16.47,188.67,14.2,182.1Z"/><path class="cls-2" d="M2.89,149.9a2,2,0,0,1-.31-.08c-.88-.34-1.74-.71-2.58-1.1v18.59a47.12,47.12,0,0,0,10.32,3.9C7.77,164.18,5.18,157.08,2.89,149.9Z"/><path class="cls-2" d="M0,140.05v3.27l1.06.58C.69,142.62.34,141.34,0,140.05Z"/><path class="cls-3" d="M2.64,131.06a45,45,0,0,0,10.69-18.89c.85-3,5.33-1.29,4.49,1.66A49.54,49.54,0,0,1,3.87,136.57a258.19,258.19,0,0,0,8.46,26.74A87.85,87.85,0,0,0,23.7,134c.58-3,5.36-2.61,4.78.41A94.59,94.59,0,0,1,14.4,169c2.1,5.67,4.2,11.27,6.11,16.8,1.16,3.33,2.32,6.66,3.51,10a2.14,2.14,0,0,1,.76,2.13c.06.17.13.33.19.5a64.89,64.89,0,0,0,11.78-31.31c.32-3.08,5.1-2.66,4.78.4A70,70,0,0,1,27,203.8l0,0c1.4,3.84,2.85,7.66,4.32,11.47,6.59-1.93,11.71-8.09,14.26-15.1,5-13.78,4.65-29.65,2.37-43.95-2.19-13.66-7-27.21-15.79-38.08a58.85,58.85,0,0,0-15-13.37c-5-3-12.13-4.49-17.11-7.93v7.65a2.28,2.28,0,0,1,.53,1.65A99,99,0,0,0,2.64,131.06Z"/><path class="cls-4" d="M26.38,215.93a401.55,401.55,0,0,0,20.41,45.63c1.45,2.71,5.81.72,4.36-2a384.78,384.78,0,0,1-18.27-40.06c-.55-1.39-1.08-2.8-1.62-4.2-1.47-3.81-2.92-7.63-4.32-11.47l0,0a70,70,0,0,0,14.57-36.32c.32-3.06-4.46-3.48-4.78-.4A64.89,64.89,0,0,1,25,198.39c-.06-.17-.13-.33-.19-.5a2.14,2.14,0,0,0-.76-2.13c-1.19-3.33-2.35-6.66-3.51-10-1.91-5.53-4-11.13-6.11-16.8a94.59,94.59,0,0,0,14.08-34.59c.58-3-4.2-3.41-4.78-.41a87.85,87.85,0,0,1-11.37,29.34,258.19,258.19,0,0,1-8.46-26.74,49.54,49.54,0,0,0,14-22.74c.84-3-3.64-4.63-4.49-1.66A45,45,0,0,1,2.64,131.06a99,99,0,0,1-2.11-24.9A2.28,2.28,0,0,0,0,104.51v35.54c.34,1.29.69,2.57,1.06,3.85L0,143.32v5.4c.84.39,1.7.76,2.58,1.1a2,2,0,0,0,.31.08c2.29,7.18,4.88,14.28,7.43,21.31A47.12,47.12,0,0,1,0,167.31v5.34a56.36,56.36,0,0,0,12.22,3.88c.67,1.86,1.34,3.72,2,5.57q2.27,6.57,4.58,13.09c-6.81-.81-12.86-4-18.78-7.55v5.54c6.4,3.66,13.09,6.7,20.54,7C22.44,205.43,24.37,210.69,26.38,215.93Z"/><path class="cls-2" d="M494.78,420.59a73,73,0,0,0,5.22,9.72v-9.6a2.4,2.4,0,0,1-1-3.21c.32-.65.67-1.28,1-1.91V392.43c-.74.87-1.47,1.75-2.16,2.67-1.86,2.46-5.29-.89-3.45-3.33a51.91,51.91,0,0,1,5.61-6.28V367.56c-1.75-.29-3.11-2.43-1.44-3.92l1.44-1.28V351.91a64.41,64.41,0,0,0-11.77,36.81A81.61,81.61,0,0,0,494.78,420.59Z"/><path class="cls-4" d="M500,367.56v-5.2l-1.44,1.28C496.89,365.13,498.25,367.27,500,367.56Z"/><path class="cls-4" d="M500,420.71v-5.12c-.36.63-.71,1.26-1,1.91A2.4,2.4,0,0,0,500,420.71Z"/><path class="cls-4" d="M494.39,391.77c-1.84,2.44,1.59,5.79,3.45,3.33.69-.92,1.42-1.8,2.16-2.67v-6.94A51.91,51.91,0,0,0,494.39,391.77Z"/><path class="cls-2" d="M464.14,206.84a3.2,3.2,0,0,0-1.07,0,16.18,16.18,0,0,0-4.32-.11c2.72,4.9,5.37,9.84,8,14.81,9.23-1,17.9,2.48,26.31,6.11,2.84,1.23.6,5.47-2.22,4.25-7-3-14.08-5.86-21.65-5.7q3.19,6.15,6.36,12.32c.89,1.74,1.82,3.49,2.74,5.24A53.63,53.63,0,0,1,500,249.51v-21A58.71,58.71,0,0,0,464.14,206.84Z"/><path class="cls-2" d="M491.25,268.82a1.75,1.75,0,0,1,.32,0,37.44,37.44,0,0,1,8.43,3V255a48.12,48.12,0,0,0-19.09-6.22C484.42,255.36,488,262,491.25,268.82Z"/><path class="cls-2" d="M500,290.16V277.34a31.64,31.64,0,0,0-6.1-2.83A153,153,0,0,1,500,290.16Z"/><path class="cls-3" d="M494.13,287.44a44.93,44.93,0,0,0-7.93,20.2c-.43,3.06-5.11,2-4.69-1a49.73,49.73,0,0,1,10.63-24.47A260.29,260.29,0,0,0,480,256.86a87.89,87.89,0,0,0-7.16,30.64c-.15,3.06-4.94,3.34-4.78.27a94.33,94.33,0,0,1,9.09-36.22c-2.87-5.32-5.73-10.57-8.4-15.77q-2.41-4.72-4.87-9.4a2.19,2.19,0,0,1-1.06-2l-.25-.47a64.85,64.85,0,0,0-7.28,32.65c.11,3.09-4.68,3.35-4.79.27a70,70,0,0,1,9.34-38l0,0Q457,213.39,454,208c-6.25,2.84-10.46,9.65-12,17-3,14.36-.46,30,3.81,43.85,4.07,13.22,10.78,26,21,35.5a58.88,58.88,0,0,0,16.72,11.14c4.85,2.1,11.31,2.64,16.51,4.75v-7.44a2.34,2.34,0,0,1-.29-1A98.64,98.64,0,0,0,494.13,287.44Z"/><path class="cls-4" d="M475.54,238.52q-3.17-6.18-6.36-12.32c7.57-.16,14.64,2.67,21.65,5.7,2.82,1.22,5.06-3,2.22-4.25-8.41-3.63-17.08-7.08-26.31-6.11-2.62-5-5.27-9.91-8-14.81a402.32,402.32,0,0,0-26.6-42.32c-1.82-2.48-5.86.1-4,2.6a384.87,384.87,0,0,1,23.69,37.1c.74,1.31,1.46,2.62,2.19,3.93q3,5.36,5.89,10.76l0,0a70,70,0,0,0-9.34,38c.11,3.08,4.9,2.82,4.79-.27a64.85,64.85,0,0,1,7.28-32.65l.25.47a2.19,2.19,0,0,0,1.06,2q2.46,4.68,4.87,9.4c2.67,5.2,5.53,10.45,8.4,15.77a94.33,94.33,0,0,0-9.09,36.22c-.16,3.07,4.63,2.79,4.78-.27A87.89,87.89,0,0,1,480,256.86a260.29,260.29,0,0,1,12.11,25.29,49.73,49.73,0,0,0-10.63,24.47c-.42,3,4.26,4.08,4.69,1a44.93,44.93,0,0,1,7.93-20.2,98.64,98.64,0,0,1,5.58,24.36,2.34,2.34,0,0,0,.29,1V290.16a153,153,0,0,0-6.1-15.65,31.64,31.64,0,0,1,6.1,2.83v-5.46a37.44,37.44,0,0,0-8.43-3,1.75,1.75,0,0,0-.32,0c-3.27-6.79-6.83-13.46-10.34-20.06A48.12,48.12,0,0,1,500,255v-5.47a53.63,53.63,0,0,0-21.72-5.75C477.36,242,476.43,240.26,475.54,238.52Z"/><path class="cls-2" d="M202.89,368a3.55,3.55,0,0,0-1-.37,16.29,16.29,0,0,0-4-1.58q1.29,8.3,2.39,16.64c9,2.28,16,8.51,22.6,14.82,2.24,2.12-1.33,5.33-3.55,3.22-5.54-5.26-11.2-10.36-18.36-12.81q.88,6.87,1.73,13.75c.24,1.94.5,3.91.76,5.87a52.94,52.94,0,0,1,22.74,18.21c1.76,2.49-1.77,5.74-3.55,3.22a48.65,48.65,0,0,0-18.44-15.83c1,7.4,2.06,14.89,2.79,22.39.1.05.19.08.29.14a36.77,36.77,0,0,1,13.56,15.66c1.28,2.8-3,5-4.26,2.2a32,32,0,0,0-9.06-11.75c.91,13,.58,25.89-2.81,38.41a2.3,2.3,0,0,1-.61,1.05q-.65,6.21-1.67,12.38c1.8,1.46,5.38.19,5.26-2.43-.63-13.21,12-25.08,17.24-36.64a81.52,81.52,0,0,0,7.51-31.67C232.9,400.75,222.29,379.11,202.89,368Z"/><path class="cls-3" d="M200.11,478.75A98.31,98.31,0,0,0,203.27,454a45.08,45.08,0,0,0-14.41,16.23c-1.45,2.73-5.49.14-4-2.57a49.67,49.67,0,0,1,18.41-19.31,260,260,0,0,0-2.66-27.91,88,88,0,0,0-17.28,26.3c-1.2,2.82-5.79,1.43-4.58-1.4a94.64,94.64,0,0,1,21-30.88c-.86-6-1.73-11.89-2.45-17.69q-.65-5.26-1.33-10.51a2.19,2.19,0,0,1-.3-2.24c0-.18,0-.35-.07-.53a64.83,64.83,0,0,0-18.09,28.14c-1,2.94-5.54,1.54-4.59-1.4a70,70,0,0,1,21.87-32.45l0,0c-.57-4.05-1.18-8.08-1.82-12.12-6.85.51-13.15,5.45-17.11,11.77-7.8,12.43-10.77,28-11.53,42.48-.73,13.82,1.17,28.08,7.44,40.54a58.94,58.94,0,0,0,11.86,16.23c5.51,5.24,15.28,8.61,18,15.88a2.58,2.58,0,0,0,.78,1.08q1-6.16,1.67-12.38A2.46,2.46,0,0,1,200.11,478.75Z"/><path class="cls-4" d="M194.76,377.74a70,70,0,0,0-21.87,32.45c-.95,2.94,3.63,4.34,4.59,1.4a64.83,64.83,0,0,1,18.09-28.14c0,.18.05.35.07.53a2.19,2.19,0,0,0,.3,2.24q.69,5.25,1.33,10.51c.72,5.8,1.59,11.72,2.45,17.69a94.64,94.64,0,0,0-21,30.88c-1.21,2.83,3.38,4.22,4.58,1.4a88,88,0,0,1,17.28-26.3,260,260,0,0,1,2.66,27.91,49.67,49.67,0,0,0-18.41,19.31c-1.45,2.71,2.59,5.3,4,2.57A45.08,45.08,0,0,1,203.27,454a98.31,98.31,0,0,1-3.16,24.79,2.46,2.46,0,0,0,4,2.45,2.3,2.3,0,0,0,.61-1.05c3.39-12.52,3.72-25.45,2.81-38.41a32,32,0,0,1,9.06,11.75c1.29,2.81,5.54.6,4.26-2.2a36.77,36.77,0,0,0-13.56-15.66c-.1-.06-.19-.09-.29-.14-.73-7.5-1.77-15-2.79-22.39a48.65,48.65,0,0,1,18.44,15.83c1.78,2.52,5.31-.73,3.55-3.22a52.94,52.94,0,0,0-22.74-18.21c-.26-2-.52-3.93-.76-5.87q-.84-6.88-1.73-13.75c7.16,2.45,12.82,7.55,18.36,12.81,2.22,2.11,5.79-1.1,3.55-3.22-6.64-6.31-13.59-12.54-22.6-14.82q-1.11-8.34-2.39-16.64a402.78,402.78,0,0,0-10.39-48.9c-.85-3-5.53-1.93-4.68,1.05a383.92,383.92,0,0,1,9.45,43c.25,1.49.48,3,.71,4.45.64,4,1.25,8.07,1.82,12.12Z"/><path class="cls-2" d="M495.76,105.75a2.27,2.27,0,0,1,.36-1.15c-.44-4.14-.77-8.29-1-12.46-2.06-1-5.29,1-4.62,3.48,3.38,12.79-6.5,27.05-9.18,39.45a81.74,81.74,0,0,0-.7,32.53A64.35,64.35,0,0,0,500,202.76v-9.58c-1.57-.9-3.12-1.83-4.66-2.77-2.63-1.61.18-5.5,2.8-3.89l1.86,1.12v-15a52.15,52.15,0,0,1-13.83-9.16c-2.25-2.06.52-6,2.79-3.9a50.49,50.49,0,0,0,11,7.72V148.72a36.56,36.56,0,0,1-14-11.36c-1.84-2.47,1.85-5.53,3.7-3.05a32,32,0,0,0,10.26,9v-3.27C497,128.81,495.14,117.38,495.76,105.75Z"/><path class="cls-3" d="M496.15,93a2.56,2.56,0,0,0-1-.9c.19,4.17.52,8.32,1,12.46a2.52,2.52,0,0,1,3.88-.09V96.86A13.73,13.73,0,0,1,496.15,93Z"/><path class="cls-4" d="M486.17,163.49A52.15,52.15,0,0,0,500,172.65v-5.34a50.49,50.49,0,0,1-11-7.72C486.69,157.51,483.92,161.43,486.17,163.49Z"/><path class="cls-4" d="M489.74,134.31c-1.85-2.48-5.54.58-3.7,3.05a36.56,36.56,0,0,0,14,11.36v-5.4A32,32,0,0,1,489.74,134.31Z"/><path class="cls-4" d="M495.34,190.41c1.54.94,3.09,1.87,4.66,2.77v-5.54l-1.86-1.12C495.52,184.91,492.71,188.8,495.34,190.41Z"/><path class="cls-4" d="M496.12,104.6a2.27,2.27,0,0,0-.36,1.15c-.62,11.63,1.24,23.06,4.24,34.3V104.51A2.52,2.52,0,0,0,496.12,104.6Z"/><path class="cls-2" d="M416.91,425.28c-2.38-2,.95-5.41,3.32-3.46,5.88,4.86,11.88,9.57,19.19,11.52q-1.35-6.79-2.67-13.6c-.37-1.92-.77-3.86-1.16-5.8a53,53,0,0,1-23.94-16.61c-1.93-2.36,1.37-5.85,3.32-3.46a48.68,48.68,0,0,0,19.49,14.53c-1.53-7.32-3.08-14.71-4.33-22.14l-.29-.13a36.73,36.73,0,0,1-14.6-14.69c-1.47-2.7,2.62-5.2,4.09-2.48a32,32,0,0,0,9.85,11.09c-1.8-12.86-2.36-25.78.17-38.51a2.32,2.32,0,0,1,.52-1.09q.22-6.24.82-12.46c-1.89-1.34-5.37.18-5.07,2.78,1.53,13.14-10.28,25.85-14.69,37.74a81.87,81.87,0,0,0-5.32,32.11c1.05,22.07,13.12,42.93,33.24,52.72a3.29,3.29,0,0,0,1,.3A16.19,16.19,0,0,0,444,455q-1.86-8.2-3.53-16.45C431.33,436.85,424,431.12,416.91,425.28Z"/><path class="cls-3" d="M434,342.62a98.29,98.29,0,0,0-1.45,24.95,45,45,0,0,0,13.26-17.18c1.26-2.82,5.46-.51,4.21,2.28a49.56,49.56,0,0,1-17,20.53,261.59,261.59,0,0,0,4.57,27.67A88,88,0,0,0,453,373.45c1-2.9,5.68-1.83,4.67,1.08a94.54,94.54,0,0,1-18.85,32.24c1.27,5.9,2.55,11.75,3.66,17.49q1,5.21,2,10.39a2.16,2.16,0,0,1,.46,2.22c0,.17.07.34.11.52a64.86,64.86,0,0,0,16.11-29.32c.75-3,5.42-1.91,4.67,1.08A70,70,0,0,1,446.3,443l0,0c.84,4,1.73,8,2.64,12,6.8-1,12.75-6.34,16.27-12.91,6.92-12.94,8.81-28.7,8.58-43.18-.22-13.83-3.1-27.93-10.21-39.93a59,59,0,0,0-12.94-15.37c-5.86-4.85-15.84-7.54-19.08-14.61a2.4,2.4,0,0,0-.85-1q-.6,6.21-.82,12.46A2.46,2.46,0,0,1,434,342.62Z"/><path class="cls-4" d="M448.92,455c-.91-4-1.8-8-2.64-12l0,0a70,70,0,0,0,19.58-33.88c.75-3-3.92-4.08-4.67-1.08a64.86,64.86,0,0,1-16.11,29.32c0-.18-.08-.35-.11-.52a2.16,2.16,0,0,0-.46-2.22q-1-5.19-2-10.39c-1.11-5.74-2.39-11.59-3.66-17.49a94.54,94.54,0,0,0,18.85-32.24c1-2.91-3.67-4-4.67-1.08a88,88,0,0,1-15.43,27.42A261.59,261.59,0,0,1,433,373.2a49.56,49.56,0,0,0,17-20.53c1.25-2.79-3-5.1-4.21-2.28a45,45,0,0,1-13.26,17.18A98.29,98.29,0,0,1,434,342.62a2.46,2.46,0,0,0-4.15-2.17,2.32,2.32,0,0,0-.52,1.09c-2.53,12.73-2,25.65-.17,38.51A32,32,0,0,1,419.33,369c-1.47-2.72-5.56-.22-4.09,2.48a36.73,36.73,0,0,0,14.6,14.69l.29.13c1.25,7.43,2.8,14.82,4.33,22.14A48.68,48.68,0,0,1,415,393.87c-2-2.39-5.25,1.1-3.32,3.46a53,53,0,0,0,23.94,16.61c.39,1.94.79,3.88,1.16,5.8q1.32,6.81,2.67,13.6c-7.31-1.95-13.31-6.66-19.19-11.52-2.37-1.95-5.7,1.49-3.32,3.46,7.06,5.84,14.42,11.57,23.56,13.22q1.68,8.25,3.53,16.45A407.79,407.79,0,0,0,456.66,500h5.08a388.06,388.06,0,0,1-11.81-40.6C449.59,457.94,449.26,456.48,448.92,455Z"/><path class="cls-2" d="M231.86,343.63c-2.33-2,1.09-5.39,3.41-3.38,5.75,5,11.63,9.87,18.89,12q-1.18-6.83-2.32-13.67c-.32-1.93-.67-3.88-1-5.83a53,53,0,0,1-23.5-17.21c-1.87-2.41,1.52-5.81,3.4-3.37a48.74,48.74,0,0,0,19.11,15c-1.33-7.35-2.7-14.79-3.76-22.25l-.29-.13a36.72,36.72,0,0,1-14.22-15.06c-1.4-2.74,2.75-5.13,4.16-2.38a31.93,31.93,0,0,0,9.56,11.35c-1.47-12.91-1.7-25.84,1.14-38.5a2.36,2.36,0,0,1,.56-1.08q.38-6.22,1.13-12.44c-1.85-1.38-5.38,0-5.14,2.66,1.2,13.17-10.93,25.58-15.64,37.36a81.64,81.64,0,0,0-6.13,32c.48,22.09,12,43.25,31.89,53.54a3.2,3.2,0,0,0,1,.33,16,16,0,0,0,4.08,1.41q-1.65-8.24-3.11-16.53C246,355.56,238.77,349.64,231.86,343.63Z"/><path class="cls-3" d="M267.64,262.85c-5.74-5-15.65-7.94-18.7-15.09a2.58,2.58,0,0,0-.83-1q-.77,6.21-1.13,12.44a2.46,2.46,0,0,1,4.09,2.28,98.45,98.45,0,0,0-2.09,24.9,44.85,44.85,0,0,0,13.69-16.83c1.34-2.79,5.48-.38,4.16,2.39A49.79,49.79,0,0,1,249.27,292a259.65,259.65,0,0,0,3.87,27.77,88.17,88.17,0,0,0,16.12-27c1.07-2.87,5.72-1.68,4.64,1.2a94.74,94.74,0,0,1-19.66,31.75c1.12,5.93,2.25,11.81,3.21,17.58q.87,5.22,1.78,10.43a2.16,2.16,0,0,1,.41,2.23l.09.53a65,65,0,0,0,16.86-28.9c.83-3,5.47-1.77,4.64,1.2a70.07,70.07,0,0,1-20.44,33.37h0c.74,4,1.53,8,2.34,12,6.82-.8,12.9-6,16.58-12.5,7.25-12.75,9.55-28.46,9.69-42.94.13-13.83-2.39-28-9.2-40.18A59,59,0,0,0,267.64,262.85Z"/><path class="cls-4" d="M260.79,362.12a70.07,70.07,0,0,0,20.44-33.37c.83-3-3.81-4.18-4.64-1.2a65,65,0,0,1-16.86,28.9l-.09-.53a2.16,2.16,0,0,0-.41-2.23q-.9-5.2-1.78-10.43c-1-5.77-2.09-11.65-3.21-17.58a94.74,94.74,0,0,0,19.66-31.75c1.08-2.88-3.57-4.07-4.64-1.2a88.17,88.17,0,0,1-16.12,27A259.65,259.65,0,0,1,249.27,292a49.79,49.79,0,0,0,17.56-20.09c1.32-2.77-2.82-5.18-4.16-2.39A44.85,44.85,0,0,1,249,286.33a98.45,98.45,0,0,1,2.09-24.9,2.46,2.46,0,0,0-4.09-2.28,2.36,2.36,0,0,0-.56,1.08c-2.84,12.66-2.61,25.59-1.14,38.5a31.93,31.93,0,0,1-9.56-11.35c-1.41-2.75-5.56-.36-4.16,2.38a36.72,36.72,0,0,0,14.22,15.06l.29.13c1.06,7.46,2.43,14.9,3.76,22.25a48.74,48.74,0,0,1-19.11-15c-1.88-2.44-5.27,1-3.4,3.37a53,53,0,0,0,23.5,17.21c.35,1.95.7,3.9,1,5.83q1.14,6.84,2.32,13.67c-7.26-2.14-13.14-7-18.89-12-2.32-2-5.74,1.35-3.41,3.38,6.91,6,14.12,11.93,23.22,13.81q1.47,8.3,3.11,16.53a401.86,401.86,0,0,0,12.5,48.41c1,2.91,5.61,1.68,4.63-1.25A383.3,383.3,0,0,1,264,378.58c-.31-1.47-.6-2.94-.9-4.42-.81-4-1.6-8-2.34-12Z"/><path class="cls-4" d="M349.78,464a369.58,369.58,0,0,0-9.37,36h4.89c2.51-11.73,5.46-23.35,9.13-34.84C355.37,462.21,350.72,461,349.78,464Z"/><path class="cls-4" d="M87.83,470.14C84.68,480,82.07,490,79.81,500h4.91c2.2-9.64,4.73-19.2,7.76-28.67C93.42,468.38,88.77,467.21,87.83,470.14Z"/><path class="cls-2" d="M134.28,481.86a3.34,3.34,0,0,0-1.07.13,16.44,16.44,0,0,0-4.28.45q4.95,6.78,9.76,13.68c9-2.11,18.08.23,26.87,2.79a2,2,0,0,1,1.36,1.09h6.76C163.33,489.42,149.5,482.54,134.28,481.86Z"/><path class="cls-3" d="M134.88,499l-.35,1h.79a2.81,2.81,0,0,1-.13-.59Z"/><path class="cls-3" d="M131.55,494.26q-3.54-5-7.18-9.94c-5.15,3.17-8.34,9.2-9.45,15.68h14.52c.62-1.92,1.31-3.83,2.1-5.72Z"/><path class="cls-4" d="M165.56,498.91c-8.79-2.56-17.83-4.9-26.87-2.79q-4.81-6.89-9.76-13.68a400.59,400.59,0,0,0-31.69-38.68c-2.11-2.24-5.79.82-3.67,3.07a384.34,384.34,0,0,1,28.14,33.86l2.66,3.63q3.63,4.94,7.18,9.94v0c-.79,1.89-1.48,3.8-2.1,5.72h5.09l.35-1,.31.43a2.81,2.81,0,0,0,.13.59h31.6A2,2,0,0,0,165.56,498.91Z"/><path class="cls-2" d="M274.41,478.59q3.3-5.29,6.92-10.39c-1-2.1-4.76-2.53-5.79-.12-5.22,12.15-21.79,17.29-31.55,25.4a90,90,0,0,0-7,6.52h9.32c0-.61,0-1.22,0-1.84.08-3.07,4.87-3.2,4.8-.11,0,.65,0,1.3,0,1.95h8.66a99.26,99.26,0,0,1,13.67-20.72A2.24,2.24,0,0,1,274.41,478.59Z"/><path class="cls-3" d="M281.56,469.51a2.54,2.54,0,0,0-.23-1.31q-3.63,5.08-6.92,10.39a2.46,2.46,0,0,1,2.5,4A94.53,94.53,0,0,0,265,500h9.91a46.78,46.78,0,0,0,8.35-4.84c2.5-1.81,5,2.28,2.51,4.08-.36.27-.75.5-1.12.76h8.49a54.39,54.39,0,0,0-2.35-8.32C288.15,484.56,280.84,477.25,281.56,469.51Z"/><path class="cls-4" d="M246.26,498.16c0,.62,0,1.23,0,1.84h4.78c0-.65,0-1.3,0-1.95C251.13,495,246.34,495.09,246.26,498.16Z"/><path class="cls-4" d="M283.28,495.16a46.78,46.78,0,0,1-8.35,4.84h9.74c.37-.26.76-.49,1.12-.76C288.27,497.44,285.78,493.35,283.28,495.16Z"/><path class="cls-4" d="M274.41,478.59a2.24,2.24,0,0,0-1,.69A99.26,99.26,0,0,0,259.73,500H265a94.53,94.53,0,0,1,11.89-17.46A2.46,2.46,0,0,0,274.41,478.59Z"/><path class="cls-2" d="M393.82,468.66a2.18,2.18,0,0,1,.37-1.15q-.68-6.21-1-12.46c-2.06-1.05-5.29.95-4.62,3.48,3.38,12.79-6.5,27.05-9.18,39.45-.14.67-.28,1.34-.41,2h4.93c-1.4-2.41,2.08-5.17,3.86-2.78a33.06,33.06,0,0,0,2.31,2.78h7.19C394.75,489.71,393.25,479.27,393.82,468.66Z"/><path class="cls-3" d="M415.17,467.7c-6.49-4-16.75-5.21-21-11.75a2.49,2.49,0,0,0-1-.9q.28,6.26,1,12.46a2.45,2.45,0,0,1,4.4,1.56A99,99,0,0,0,400.7,494a45,45,0,0,0,10.69-18.89c.85-3,5.34-1.28,4.49,1.66a49.48,49.48,0,0,1-13.95,22.74c.05.18.09.35.14.52h19c.24-1,.47-2.07.67-3.12.58-3,5.36-2.61,4.78.41-.18.91-.39,1.81-.59,2.71h14.92a70.58,70.58,0,0,0-10.71-18.93A58.85,58.85,0,0,0,415.17,467.7Z"/><path class="cls-4" d="M383.94,500h6.17a33.06,33.06,0,0,1-2.31-2.78C386,494.83,382.54,497.59,383.94,500Z"/><path class="cls-4" d="M415.88,476.74c.85-2.94-3.64-4.63-4.49-1.66A45,45,0,0,1,400.7,494a99,99,0,0,1-2.11-24.9,2.45,2.45,0,0,0-4.4-1.56,2.18,2.18,0,0,0-.37,1.15c-.57,10.61.93,21,3.48,31.34h4.77c-.05-.17-.09-.34-.14-.52A49.48,49.48,0,0,0,415.88,476.74Z"/><path class="cls-4" d="M421.76,496.88c-.2,1.05-.43,2.09-.67,3.12H426c.2-.9.41-1.8.59-2.71C427.12,494.27,422.34,493.88,421.76,496.88Z"/><path class="cls-2" d="M36.33,470.42a2.3,2.3,0,0,1,1.09-.55q3.94-4.83,8.19-9.43c-.7-2.2-4.4-3.1-5.73-.85C33.15,471,16.06,474,5.35,480.75c-1.83,1.16-3.6,2.41-5.35,3.7V500H7.66A36.41,36.41,0,0,1,7,485.69c.46-3,5.23-2.56,4.77.5A31.92,31.92,0,0,0,12.62,500h.85C19.7,489,26.91,478.77,36.33,470.42Z"/><path class="cls-3" d="M52,484.94c-1.74-7.4-8.05-15.58-6.35-23.17a2.58,2.58,0,0,0-.06-1.33q-4.24,4.59-8.19,9.43a2.46,2.46,0,0,1,2,4.24,98.74,98.74,0,0,0-16.25,19,44.94,44.94,0,0,0,21-5.65c2.71-1.49,4.67,2.89,2,4.36a49.61,49.61,0,0,1-26,6c-.44.71-.87,1.44-1.3,2.16H53.4A56.84,56.84,0,0,0,52,484.94Z"/><path class="cls-4" d="M11.78,486.19c.46-3.06-4.31-3.54-4.77-.5A36.41,36.41,0,0,0,7.66,500h5A31.92,31.92,0,0,1,11.78,486.19Z"/><path class="cls-4" d="M46.08,491.8c2.69-1.47.73-5.85-2-4.36a44.94,44.94,0,0,1-21,5.65,98.74,98.74,0,0,1,16.25-19,2.46,2.46,0,0,0-2-4.24,2.3,2.3,0,0,0-1.09.55C26.91,478.77,19.7,489,13.47,500h5.32c.43-.72.86-1.45,1.3-2.16A49.61,49.61,0,0,0,46.08,491.8Z"/><path class="cls-2" d="M484,500h16V484.45A80.68,80.68,0,0,0,484,500Z"/></svg>