<?xml version="1.0" encoding="utf-8"?>
<!-- Generator: Adobe Illustrator 18.0.0, SVG Export Plug-In . SVG Version: 6.00 Build 0)  -->
<!DOCTYPE svg PUBLIC "-//W3C//DTD SVG 1.1//EN" "http://www.w3.org/Graphics/SVG/1.1/DTD/svg11.dtd" [
	<!ENTITY ns_flows "http://ns.adobe.com/Flows/1.0/">
	<!ENTITY ns_extend "http://ns.adobe.com/Extensibility/1.0/">
	<!ENTITY ns_ai "http://ns.adobe.com/AdobeIllustrator/10.0/">
	<!ENTITY ns_graphs "http://ns.adobe.com/Graphs/1.0/">
]>
<svg version="1.1" id="Layer_1" xmlns:x="&ns_extend;" xmlns:i="&ns_ai;" xmlns:graph="&ns_graphs;"
	 xmlns="http://www.w3.org/2000/svg" xmlns:xlink="http://www.w3.org/1999/xlink" xmlns:a="http://ns.adobe.com/AdobeSVGViewerExtensions/3.0/"
	 x="0px" y="0px" viewBox="0 0 1400 980" enable-background="new 0 0 1400 980" xml:space="preserve">
<g>
	<rect x="406.1" y="346.5" fill="#170B0B" width="552.5" height="346.3"/>
	<g>
		
			<linearGradient id="SVGID_1_" gradientUnits="userSpaceOnUse" x1="-840.7194" y1="813.1841" x2="-461.3376" y2="813.1841" gradientTransform="matrix(-0.5526 0.9144 1.533 1.0003 -975.0441 293.9671)">
			<stop  offset="0.328" style="stop-color:#F1EF91"/>
			<stop  offset="0.4326" style="stop-color:#F2F099;stop-opacity:0.8443"/>
			<stop  offset="0.597" style="stop-color:#F5F3B0;stop-opacity:0.5997"/>
			<stop  offset="0.7992" style="stop-color:#FAF9D4;stop-opacity:0.2987"/>
			<stop  offset="1" style="stop-color:#FFFFFF;stop-opacity:0"/>
			<a:midPointStop  offset="0.328" style="stop-color:#F1EF91"/>
			<a:midPointStop  offset="0.6087" style="stop-color:#F1EF91"/>
			<a:midPointStop  offset="1" style="stop-color:#FFFFFF;stop-opacity:0"/>
		</linearGradient>
		<polygon fill="url(#SVGID_1_)"  a:adobe-blending-mode="overlay" points="736.2,338.7 560.4,707.7 526.5,685.6 492.6,663.5 		"/>
		
			<linearGradient id="SVGID_2_" gradientUnits="userSpaceOnUse" x1="-891.1971" y1="752.3303" x2="-511.8153" y2="752.3303" gradientTransform="matrix(-0.568 0.5548 1.0761 0.827 -609.0153 252.3196)">
			<stop  offset="0.328" style="stop-color:#F1EF91"/>
			<stop  offset="0.4326" style="stop-color:#F2F099;stop-opacity:0.8443"/>
			<stop  offset="0.597" style="stop-color:#F5F3B0;stop-opacity:0.5997"/>
			<stop  offset="0.7992" style="stop-color:#FAF9D4;stop-opacity:0.2987"/>
			<stop  offset="1" style="stop-color:#FFFFFF;stop-opacity:0"/>
			<a:midPointStop  offset="0.328" style="stop-color:#F1EF91"/>
			<a:midPointStop  offset="0.6087" style="stop-color:#F1EF91"/>
			<a:midPointStop  offset="1" style="stop-color:#FFFFFF;stop-opacity:0"/>
		</linearGradient>
		<polygon fill="url(#SVGID_2_)"  a:adobe-blending-mode="overlay" points="706.8,380.1 515.1,608.8 491.3,590.5 467.5,572.3 		"/>
		
			<linearGradient id="SVGID_3_" gradientUnits="userSpaceOnUse" x1="-888.3336" y1="893.3169" x2="-508.9517" y2="893.3169" gradientTransform="matrix(-0.1953 0.6789 0.6999 0.9993 -82.63 93.7901)">
			<stop  offset="0.328" style="stop-color:#F1EF91"/>
			<stop  offset="0.4326" style="stop-color:#F2F099;stop-opacity:0.8443"/>
			<stop  offset="0.597" style="stop-color:#F5F3B0;stop-opacity:0.5997"/>
			<stop  offset="0.7992" style="stop-color:#FAF9D4;stop-opacity:0.2987"/>
			<stop  offset="1" style="stop-color:#FFFFFF;stop-opacity:0"/>
			<a:midPointStop  offset="0.328" style="stop-color:#F1EF91"/>
			<a:midPointStop  offset="0.6087" style="stop-color:#F1EF91"/>
			<a:midPointStop  offset="1" style="stop-color:#FFFFFF;stop-opacity:0"/>
		</linearGradient>
		<polygon fill="url(#SVGID_3_)"  a:adobe-blending-mode="overlay" points="716.1,383.4 657.5,663 642,640.9 626.5,618.8 		"/>
	</g>
	<path fill="#210D0B" d="M1167.3,559.8c-15.5-49.1-31.4-98.9-59.9-141.8c-22.9-34.4-53.2-63.3-84.1-90.6
		c-53.9-47.8-111.6-91.2-172.4-129.8c-13.5-8.6-27.3-16.9-42.2-22.8c-21.2-8.3-44.1-11.5-66.9-11.4c-20.3,0.1-41,3-58.9,12.6
		c-18.7,10.1-33.1,26.9-44,45.1c-17.4,29-27.3,62.4-28.4,96.2c-0.5,13.8,1,28.4,5.7,41.3c-0.5,0.2-0.9,0.5-1,1
		c-0.4,1.2,1.1,2.1,1.6,3.3c0.5,1.1,0.1,2.4,0.3,3.5c0.1,0.8,0.5,1.4,0.7,2.2c0.2,0.8,0.2,1.6,0.2,2.4c0.1,2.8,0.6,5.6,1,8.4
		c0.1,0.4,0.2,0.8,0.5,1c0.5,0.2,1.1-0.3,1.1-0.9c0.1-0.6-0.1-1.1,0-1.7c0.1-0.5,0.3-0.9,0.5-1.3c0.8-1.5,1.3-3.2,1.5-4.8
		c3.3,5.2,7.4,9.8,12.5,13.6c12.6,9.5,28.8,12.4,44.4,14.9c2.3,0.4,4.7,0.7,6.8-0.1c2.3-0.9,4-3.2,6.4-3.7c0.8-0.2,1.6-0.1,2.4,0.1
		c0.3,1.4,0.4,2.9,0.4,4.4c0.2,5.4,1.1,10.8,1.9,16.2c0.1,0.7,0.3,1.6,1,1.9c1,0.5,2-0.7,2.2-1.7s-0.2-2.2-0.1-3.2
		c0.1-0.9,0.6-1.7,1-2.5c1.5-2.8,2.4-5.9,2.8-9.1c3.6,2.8,7.3,5.6,10.9,8.4c0,0.2,0,0.3,0.1,0.5c0.1,0.8,0.5,1.4,0.7,2.2
		c0.2,0.8,0.2,1.6,0.2,2.4c0.1,2.8,0.6,5.6,1,8.4c0.1,0.4,0.2,0.8,0.5,1c0.5,0.2,1.1-0.3,1.1-0.9c0.1-0.6-0.1-1.1,0-1.7
		c0.1-0.5,0.3-0.9,0.5-1.3c1-1.9,1.5-4.1,1.5-6.3c3.4,2.6,6.8,5.3,10.3,7.9c8.3,6.4,16.9,13.1,22.9,21.6c1.2,1.8,3.2,2.8,5.3,2.9
		c0,0.3,0,0.5,0,0.8c0.1,2.8,0.6,5.6,1,8.4c0.1,0.4,0.2,0.8,0.5,1c0.5,0.2,1.1-0.3,1.1-0.9c0.1-0.6-0.1-1.1,0-1.7
		c0.1-0.5,0.3-0.9,0.5-1.3c1.2-2.2,1.7-4.7,1.5-7.2c1.5-0.3,3.2-0.3,4.8,0c0.2,2.4,0.5,4.7,0.9,7.1c0.1,0.4,0.2,0.8,0.5,1
		c0.5,0.2,1.1-0.3,1.1-0.9c0.1-0.6-0.1-1.1,0-1.7c0.1-0.5,0.3-0.9,0.5-1.3c0.5-1,0.9-2.1,1.2-3.2c1.4,0.5,2.9,1.1,4.3,1.7
		c3.1,1.5,6.8-0.2,7.7-3.6c1.9-7.8,8.4-14.7,16.3-16.4c0.2,0.7,0.2,1.5,0.2,2.2c0.1,2.8,0.6,5.6,1,8.4c0.1,0.4,0.2,0.8,0.5,1
		c0.5,0.2,1.1-0.3,1.1-0.9c0.1-0.6-0.1-1.1,0-1.7c0.1-0.5,0.3-0.9,0.5-1.3c0.7-1.3,1.1-2.6,1.3-4c0.2,0.6,0.5,1.2,0.6,1.9
		c0.2,0.8,0.2,1.6,0.2,2.4c0.1,2.8,0.6,5.6,1,8.4c0.1,0.4,0.2,0.8,0.5,1c0.5,0.2,1.1-0.3,1.1-0.9s-0.1-1.1,0-1.7
		c0.1-0.5,0.3-0.9,0.5-1.3c1.3-2.4,1.8-5.1,1.4-7.8c-0.1-0.7-0.2-1.4,0.2-2c0.4-0.6,1.2-0.9,1.5-1.6c0.2-0.4,0.1-0.8,0.1-1.2
		c5.9,2,11.2,6.1,16.1,10.7c-0.1,0.1-0.2,0.3-0.3,0.5c-0.4,1.2,1.1,2.1,1.6,3.3c0.5,1.1,0.1,2.4,0.3,3.5c0.1,0.8,0.5,1.4,0.7,2.2
		c0.2,0.8,0.2,1.6,0.2,2.4c0.1,2.8,0.6,5.6,1,8.4c0.1,0.4,0.2,0.8,0.5,1c0.5,0.2,0.9-0.2,1.1-0.7c0.3,4.1,1,8.3,1.6,12.3
		c0.7,4.4,1.9,9.1,3.7,13.5c0,0.1-0.1,0.1-0.1,0.2c-0.4,1.2,1.1,2.1,1.6,3.3c0.5,1.1,0.1,2.4,0.3,3.5c0.1,0.8,0.5,1.4,0.7,2.2
		c0.2,0.8,0.2,1.6,0.2,2.4c0.1,2.8,0.6,5.6,1,8.4c0.1,0.4,0.2,0.8,0.5,1c0.5,0.2,1.1-0.3,1.1-0.9c0.1-0.6-0.1-1.1,0-1.7
		c0.1-0.5,0.3-0.9,0.5-1.3c0.9-1.7,1.4-3.7,1.5-5.6c3.2,2.9,7.2,4.5,12,3.8c0,0,0,0,0,0c0.1,2.8,0.6,5.6,1,8.4
		c0.1,0.4,0.2,0.8,0.5,1c0.5,0.2,1.1-0.3,1.1-0.9s-0.1-1.1,0-1.7c0.1-0.5,0.3-0.9,0.5-1.3c0.6-1,1-2.2,1.2-3.3c0,0.2,0,0.4,0.1,0.6
		c0.1,0.8,0.5,1.4,0.7,2.2c0.2,0.8,0.2,1.6,0.2,2.4c0.1,2.8,0.6,5.6,1,8.4c0.1,0.4,0.2,0.8,0.5,1c0.5,0.2,1.1-0.3,1.1-0.9
		c0.1-0.6-0.1-1.1,0-1.7c0.1-0.5,0.3-0.9,0.5-1.3c1.3-2.4,1.8-5.1,1.4-7.8c-0.1-0.7-0.2-1.4,0.2-2c0.2-0.3,0.5-0.6,0.8-0.8
		c3.4,5.9-3.9,18.7,0.9,25.9c1.7,2.5,4.7,3.9,6,6.7c1.7,3.6-0.3,7.8-1.3,11.7c-3.9,14.9,11.7,31.1,26.8,27.8c4.5-1,9-3.4,13.4-2.1
		c7.6,2.1,10.8,13.7,18.7,13.4c3.2-0.1,6-2.4,9.3-2.4c9.1,0,8.3,14.4,14.2,21.4c3.3,3.9,9.2,5.7,10.8,10.5c2.4,7.4-7.4,15-4.6,22.2
		c1.6,4,6.4,5.7,8.9,9.2c5.2,7.5-2.2,19,2.8,26.6c6.6,10.1,23.1,0.8,34.1,5.6c3.4,1.5,6.1,4.3,9.5,5.4c5.4,1.8,11.2-0.8,16.8-1.6
		c2.3-0.3,4.8-0.1,7,0.6c5.3,1.7,11,0.4,14.8-3.7c12.7-13.8,28.3-25,45.6-32.3c13.2-5.7,27.7-9.3,38.8-18.5
		c8.5-7.1,14.3-16.9,19.8-26.4c4.2-7.2,8.5-14.7,9.2-23C1171.8,574.2,1169.5,566.9,1167.3,559.8z"/>
	<path fill="#29160C" d="M472.4,257.1c5.2,33.4,19,65.4,39.8,92.1c15.4,19.7,37.3,37.6,62.4,36.4c15.8-0.8,30.1-9,43.6-17
		c2-1.2,4.1-2.4,5.2-4.5c1.2-2.2,1-5,2.5-6.9c1.7-2.2,4.9-2.5,7.6-2.6c13-0.5,26-1,39-1.5c10.5-0.4,21.4-0.8,31.4,1.9
		c3.1,0.8,6.2-0.7,7.9-3.4c2.4-4,7.5-6.4,13-7.8c3.4-0.9,5.1-4.6,3.5-7.7c-3.9-8.1-2.7-18.8,3.9-25.1c9.1-8.7,23.4-7.7,35.8-6.1
		c3.8,8.1,10.7,14.2,17.5,20c10.9,9.4,28.3,18.9,37.5,5.6c1-1.4,2.3-2.5,3.8-3.2c10.1-4.5,11.8,16.1,21.8,19c2.9,0.8,6.1,0,8.9,1.3
		c3.6,1.7,4.7,6.2,6.4,9.8c6.5,14,28.9,16.4,38.3,4.2c2.8-3.6,4.7-8.3,8.9-10.2c7.2-3.3,17.1,3.6,22.9-1.7c2.4-2.2,3.1-5.8,5.5-7.8
		c7-5.8,15.6,5.8,24.5,7.3c5,0.9,10.7-1.6,15,1.1c6.6,4.1,3.9,16.3,10.7,20c3.8,2.1,8.6,0.3,12.7,1.4c8.8,2.4,10.5,15.9,19.2,18.6
		c11.5,3.5,18.2-14.2,29.8-17.5c3.5-1,7.4-0.6,10.8-2c5.3-2.1,8.1-7.8,11.9-12c1.5-1.7,3.5-3.1,5.6-4c5.2-2.2,8.9-7,9.2-12.7
		c0.9-18.6,5.8-37.1,14.3-53.7c6.5-12.8,15.3-24.9,17.9-39.1c2-10.9,0.2-22.1-1.7-33c-1.4-8.2-2.9-16.7-7.6-23.5
		c-4.2-6.1-10.7-10.3-16.9-14.3c-43.4-27.7-87.5-55.8-136.8-70.5c-39.9-11.9-82-14.5-123.6-15.7c-72.6-2.1-145.3,1.6-217.3,11.1
		c-15,2-30,4.4-44.4,9.2c-21.6,7.2-41.3,19.4-58.7,34.1c-15.5,13.1-29.6,28.6-37.2,47.4C469.4,214,469.1,236.1,472.4,257.1z"/>
	<path fill="#29160C" d="M1024,704.1c-5.2-33.4-19-65.4-39.8-92.1c-15.4-19.7-37.3-37.6-62.4-36.4c-15.8,0.8-30.1,9-43.6,17
		c-2,1.2-4.1,2.4-5.2,4.5c-1.2,2.2-1,5-2.5,6.9c-1.7,2.2-4.9,2.5-7.6,2.6c-13,0.5-26,1-39,1.5c-10.5,0.4-21.4,0.8-31.4-1.9
		c-3.1-0.8-6.2,0.7-7.9,3.4c-2.4,4-7.5,6.4-13,7.8c-3.4,0.9-5.1,4.6-3.5,7.7c3.9,8.1,2.7,18.8-3.9,25.1c-9.1,8.7-23.4,7.7-35.8,6.1
		c-3.8-8.1-10.7-14.2-17.5-20c-10.9-9.4-28.3-18.9-37.5-5.6c-1,1.4-2.3,2.5-3.8,3.2c-10.1,4.5-11.8-16.1-21.8-19
		c-2.9-0.8-6.1,0-8.9-1.3c-3.6-1.7-4.7-6.2-6.4-9.8c-6.5-14-28.9-16.4-38.3-4.2c-2.8,3.6-4.7,8.3-8.9,10.2
		c-7.2,3.3-17.1-3.6-22.9,1.7c-2.4,2.2-3.1,5.8-5.5,7.8c-7,5.8-15.6-5.8-24.5-7.3c-5-0.9-10.7,1.6-15-1.1c-6.6-4.1-3.9-16.3-10.7-20
		c-3.8-2.1-8.6-0.3-12.7-1.4c-8.8-2.4-10.5-15.9-19.2-18.6c-11.5-3.5-18.2,14.2-29.8,17.5c-3.5,1-7.4,0.6-10.8,2
		c-5.3,2.1-8.1,7.8-11.9,12c-1.5,1.7-3.5,3.1-5.6,4c-5.2,2.2-8.9,7-9.2,12.7c-0.9,18.6-5.8,37.1-14.3,53.7
		c-6.5,12.8-15.3,24.9-17.9,39.1c-2,10.9-0.2,22.1,1.7,33c1.4,8.2,2.9,16.7,7.6,23.5c4.2,6.1,10.7,10.3,16.9,14.3
		c43.4,27.7,87.5,55.8,136.8,70.5c39.9,11.9,82,14.5,123.6,15.7c72.6,2.1,145.3-1.6,217.3-11.1c15-2,30-4.4,44.4-9.2
		c21.6-7.2,41.3-19.4,58.7-34.1c15.5-13.1,29.6-28.6,37.2-47.4C1027,747.2,1027.3,725.1,1024,704.1z"/>
	<path fill="#2F1D0E" d="M852.5,162.8H206v706.4h646.5V763.4c-13.1,1.5-25.2-9-38.6-8.1c-8.2,0.6-15,5.3-22.4,8.2
		c-9,3.6-18.5,4.4-28.2,3.9c-0.6-0.9-1.3-1.9-1.9-2.8c-1.4-2.3-1.8-4.9-2.2-7.5l-3.8-25.9c-0.1-0.8-0.9-1.3-1.8-1.3c0,0,0,0,0,0
		c-1.1,0-1.9,0.8-1.7,1.8c0.6,3.7-0.2,7.6-2.3,10.8c0,0.1-0.1,0.1-0.1,0.2c-0.1-0.4-0.1-0.9-0.2-1.3l-3.8-25.9
		c-0.1-0.8-0.9-1.3-1.8-1.3c0,0,0,0,0,0c-1.1,0-1.9,0.8-1.7,1.8c0.6,3.7-0.2,7.6-2.3,10.8c-0.5,0.8-1.1,1.5-1.3,2.3
		c-0.3,1.2,0.1,2.5-0.1,3.7c-0.1,0.7-0.6,1.4-1.2,1.9c-0.6,0.4-0.8,1.2-0.5,1.8c1.4,2.8,0.5,6.4-2.1,8.3c-0.2,0.2-0.5,0.4-0.6,0.7
		c-0.9,2.7,1.2,5.6,1.6,8.4c0.4,3.2-1.3,6.3-2,9.4c-1.9-0.3-3.7-0.7-5.6-1c-0.1-0.4-0.1-0.8-0.2-1.1l-3.8-25.9
		c-0.1-0.8-0.9-1.3-1.8-1.3c0,0,0,0,0,0c-1.1,0-1.9,0.8-1.7,1.8c0.6,3.7-0.2,7.6-2.3,10.8c-0.5,0.8-1.1,1.5-1.3,2.3
		c-0.3,1.2,0.1,2.5-0.1,3.7c-0.1,0.7-0.6,1.4-1.2,1.9c-0.6,0.4-0.8,1.2-0.5,1.8c0.6,1.3,0.8,2.8,0.5,4.2c-5.4-0.7-10.7-1.2-16.1-1.2
		c-14.5-0.1-28.6,3.2-42.9,5.3c-9.4,1.4-18.9,2.1-28.5,2.4c0.1-0.5,0.3-1,0.6-1.4c0.5-0.8,1.3-1.5,1.6-2.4c0.8-2.1-1.2-4.2-2.5-6.2
		c-1.4-2.3-1.8-4.9-2.2-7.5l-3.8-25.9c-0.1-0.8-0.9-1.3-1.8-1.3c0,0,0,0,0,0c-1.1,0-1.9,0.8-1.7,1.8c0.6,3.7-0.2,7.6-2.3,10.8
		c-0.5,0.8-1.1,1.5-1.3,2.3c-0.3,1.2,0.1,2.5-0.1,3.7c-0.1,0.7-0.6,1.4-1.2,1.9c-0.6,0.4-0.8,1.2-0.5,1.8c1.4,2.8,0.5,6.4-2.1,8.3
		c-0.2,0.2-0.5,0.4-0.6,0.7c-0.9,2.7,1.2,5.6,1.6,8.4c0.2,1.6-0.1,3.3-0.6,4.9c-3-0.1-6-0.3-9-0.5l-3.7-25.1
		c-0.1-0.8-0.9-1.3-1.8-1.3c0,0,0,0,0,0c-1.1,0-1.9,0.8-1.7,1.8c0.6,3.7-0.2,7.6-2.3,10.8c-0.5,0.8-1.1,1.5-1.3,2.3
		c-0.3,1.2,0.1,2.5-0.1,3.7c-0.1,0.7-0.6,1.4-1.2,1.9c-0.6,0.4-0.8,1.2-0.5,1.8c0.5,0.9,0.6,2,0.6,3c-6.7-0.8-13.3-1.9-19.9-3.3
		c0.4-0.5,0.8-1,1-1.5c0.8-2.1-1.2-4.2-2.5-6.2c-1.4-2.3-1.8-4.9-2.2-7.5l-3.8-25.9c-0.1-0.8-0.9-1.3-1.8-1.3c0,0,0,0,0,0
		c-1.1,0-1.9,0.8-1.7,1.8c0.6,3.7-0.2,7.6-2.3,10.8c-0.5,0.8-1.1,1.5-1.3,2.3c-0.3,1.2,0.1,2.5-0.1,3.7c-0.1,0.7-0.6,1.4-1.2,1.9
		c-0.6,0.4-0.8,1.2-0.5,1.8c1.4,2.8,0.5,6.4-2.1,8.3c-0.2,0.2-0.5,0.4-0.6,0.7c-0.7,2.2,0.5,4.4,1.2,6.8c-0.3-0.1-0.6-0.2-0.9-0.3
		c-0.3-1.4-0.5-2.9-0.7-4.3c-0.3-1.8-0.5-3.8,0.5-5.4c0.5-0.8,1.3-1.5,1.6-2.4c0.8-2.1-1.2-4.2-2.5-6.2c-1.4-2.3-1.8-4.9-2.2-7.5
		l-3.8-25.9c-0.1-0.8-0.9-1.3-1.8-1.3c0,0,0,0,0,0c-1.1,0-1.9,0.8-1.7,1.8c0.6,3.7-0.2,7.6-2.3,10.8c-0.5,0.8-1.1,1.5-1.3,2.3
		c-0.3,1.2,0.1,2.5-0.1,3.7c-0.1,0.7-0.6,1.4-1.2,1.9c-0.6,0.4-0.8,1.2-0.5,1.8c1,2,0.8,4.5-0.4,6.4c-0.2-1.1-0.3-2.1-0.5-3.2
		c-0.3-2.1-0.6-4.4,0.5-6.2c0.6-0.9,1.5-1.7,1.8-2.7c1-2.5-1.4-4.8-2.9-7.1c-1.7-2.6-2.1-5.7-2.6-8.7l-4.4-29.9
		c-0.1-0.9-1-1.5-2-1.5c0,0,0,0,0,0c-1.2,0-2.1,1-2,2c0.7,4.3-0.2,8.7-2.6,12.5c-0.6,0.9-1.2,1.7-1.5,2.7c-0.4,1.4,0.1,2.8-0.1,4.2
		c-0.1,0.8-0.7,1.7-1.4,2.1c-0.7,0.5-0.9,1.4-0.5,2.1c1.6,3.2,0.6,7.4-2.5,9.6c-0.3,0.2-0.5,0.5-0.6,0.8c-1.1,3.1,1.4,6.4,1.8,9.7
		c0.6,4.6-2.7,9.2-2.6,13.7c-0.6-1.4-1.1-2.8-1.5-4.3c-1.7-7.1,0.6-14.9-2.7-21.6c-3.2-6.5-10.2-9.9-18-12.9
		c-0.1-0.8-0.3-1.6-0.4-2.4c-0.3-1.8-0.5-3.8,0.5-5.4c0.5-0.8,1.3-1.5,1.6-2.4c0.8-2.1-1.2-4.2-2.5-6.2c-1.4-2.3-1.8-4.9-2.2-7.5
		l-3.8-25.9c-0.1-0.8-0.9-1.3-1.8-1.3c0,0,0,0,0,0c-1.1,0-1.9,0.8-1.7,1.8c0.6,3.7-0.2,7.6-2.3,10.8c-0.5,0.8-1.1,1.5-1.3,2.3
		c-0.3,1.2,0.1,2.5-0.1,3.7c-0.1,0.6-0.4,1.1-0.9,1.5c-1.7-0.7-2.8-2.5-2.5-4.5c0.9-5.2,1.1-10.5-1.4-15c-0.7-1.3-1.7-2.5-2.1-4
		c-0.8-3.1,1.4-6,3-8.8s2.1-7-0.6-8.6c-0.6-0.3-1.3-0.6-1.6-1.1c-0.2-0.5-0.2-1-0.1-1.6c0.4-2,0.8-4.1,1.1-6.1
		c0.5-2.4-0.9-4.7-3.2-5.6c-0.2-0.1-0.4-0.2-0.6-0.3c0.3-3.8,0.2-7.6-0.6-11.3c-1.8-8.7-6.9-16.3-12.8-23.8c0-1.6-1.3-2.6-2.7-3.4
		c-2.6-3.2-5.3-6.4-7.8-9.7c-0.8-3-0.7-6.3,0.5-9.2c1.1-2.6,2.9-4.8,3.9-7.4c1-2.6,0.9-6-1.3-7.7c-0.9-0.7-1.9-1-2.8-1.6
		c-2.3-1.6-2.6-5-1.7-7.6c1-3,3.2-5.4,4.8-8.1c0.5-0.8,0.8-1.7,0.7-2.6c-0.4-3.8-6.2-3.3-8-6.3c-2.2-3.8,3.9-8.2,2.7-12.4
		c-0.4-1.5-1.7-2.6-2.8-3.8c3.9-10.8,7-21.7,4.6-32.6c-1.6-7.1-5.6-13.7-6.9-20.9c-2.4-12.9,5.9-26,18.5-33.5
		c-0.4,0.9-1,1.8-1.4,2.7c-1.9,5,2.7,10.2,2,15.4c-0.4,3.1-2.7,6.2-1.7,9.2c0.1,0.3,0.3,0.5,0.6,0.7c2.9,2.1,3.8,6.1,2.3,9.1
		c-0.3,0.7-0.2,1.5,0.5,2c0.7,0.4,1.2,1.2,1.3,2c0.2,1.3-0.2,2.7,0.1,4c0.2,0.9,0.9,1.7,1.4,2.6c2.3,3.5,3.2,7.8,2.5,11.8
		c-0.2,1,0.7,1.9,1.9,1.9c0,0,0,0,0,0c1,0,1.8-0.6,1.9-1.5l4.2-28.2c0.2-1.4,0.4-2.8,0.8-4.2c0.2,0.2,0.3,0.3,0.5,0.5
		c8.7,7.3,11.3,20.7,6.9,31.1c-1,2.4-0.5,5.2,1.5,6.7c2.1,1.5,3.6,4.3,4,6.9c0.6,4.5-0.6,9.2,0.4,13.7c0.7,3.2,2.6,5.9,4.1,8.8
		c6.8,12.1,9.4,26.6,7.4,40.3c-0.5,3.4,2.1,6.5,5.5,6.6c0,0,0.1,0,0.1,0c2.9,0,5.4-2.1,5.7-5l5.7-44.3c1.5-0.5,2.8-1.7,3.2-3.4
		c0.5-2.7,0.6-5.6,0.5-8.2c-1.1-33.5,8.5-67.3,27.4-96.8c1-1.6,2.1-3.2,3.1-4.9c0.1,0.2,0.3,0.3,0.4,0.4c0.7,0.4,1.2,1.2,1.3,2
		c0.2,1.3-0.2,2.7,0.1,4c0.2,0.9,0.9,1.7,1.4,2.6c2.3,3.5,3.2,7.8,2.5,11.8c-0.2,1,0.7,1.9,1.9,1.9c0,0,0,0,0,0c1,0,1.8-0.6,1.9-1.5
		l4.2-28.2c0.4-2.8,0.9-5.7,2.4-8.2c1.4-2.2,3.6-4.4,2.7-6.7c-0.4-0.9-1.2-1.7-1.7-2.6c-1.1-1.8-0.8-3.9-0.5-5.9
		c0.6-4.1,1.3-8.3,2.9-12.1c3.9-1.7,7.9-3.4,10.6-6.3c5.7-6.1,3.3-15.2,7.2-22.3c6.3-11.5,25.8-12.7,35.6-22.2
		c3.3-3.2,5.3-7.2,7.3-11.2c0.5,1.7,0.4,3.6-0.4,5.2c-0.3,0.7-0.2,1.5,0.5,2c0.7,0.4,1.2,1.2,1.3,2c0.2,1.3-0.2,2.7,0.1,4
		c0.2,0.9,0.9,1.7,1.4,2.6c2.3,3.5,3.2,7.8,2.5,11.8c-0.2,1,0.7,1.9,1.9,1.9c0,0,0,0,0,0c1,0,1.8-0.6,1.9-1.5l4.2-28.2
		c0.4-2.8,0.9-5.7,2.4-8.2c0.6-0.9,1.3-1.8,1.9-2.7c0,0.2,0.1,0.3,0.1,0.5c0.2,0.9,0.9,1.7,1.4,2.6c2.3,3.5,3.2,7.8,2.5,11.8
		c-0.2,1,0.7,1.9,1.9,1.9c0,0,0,0,0,0c1,0,1.8-0.6,1.9-1.5l3.6-24.2c11.9,0,25.3,3.7,37.4,5.2c6.9,0.8,13.9,0.8,20.8-0.1
		c0,0.1,0.1,0.3,0.1,0.4c0.2,1.3-0.2,2.7,0.1,4c0.2,0.9,0.9,1.7,1.4,2.6c2.3,3.5,3.2,7.8,2.5,11.8c-0.2,1,0.7,1.9,1.9,1.9
		c0,0,0,0,0,0c1,0,1.8-0.6,1.9-1.5l3.2-21.4c8.1-2.2,15.7-5.5,22.5-9.8c0.2,0.9,0.2,1.9,0.1,2.8c-0.4,3.1-2.7,6.2-1.7,9.2
		c0.1,0.3,0.3,0.5,0.6,0.7c2.9,2.1,3.8,6.1,2.3,9.1c-0.3,0.7-0.2,1.5,0.5,2c0.7,0.4,1.2,1.2,1.3,2c0.2,1.3-0.2,2.7,0.1,4
		c0.2,0.9,0.9,1.7,1.4,2.6c2.3,3.5,3.2,7.8,2.5,11.8c-0.2,1,0.7,1.9,1.9,1.9c0,0,0,0,0,0c1,0,1.8-0.6,1.9-1.5l4.2-28.2
		c0.4-2.8,0.9-5.7,2.4-8.2c1.4-2.2,3.6-4.4,2.7-6.7c-0.4-0.9-1.2-1.7-1.7-2.6c-1.1-1.8-0.8-3.9-0.5-5.9c0.8-5.5,1.7-11.2,5-16
		c1.2-1.8,2.8-3.6,3.8-5.5c0.1,0.2,0.3,0.5,0.5,0.6c2.9,2.1,3.8,6.1,2.3,9.1c-0.3,0.7-0.2,1.5,0.5,2c0.7,0.4,1.2,1.2,1.3,2
		c0.2,1.3-0.2,2.7,0.1,4c0.2,0.9,0.9,1.7,1.4,2.6c2.3,3.5,3.2,7.8,2.5,11.8c-0.2,1,0.7,1.9,1.9,1.9c0,0,0,0,0,0c1,0,1.8-0.6,1.9-1.5
		l4.2-28.2c0.4-2.8,0.9-5.7,2.4-8.2c1.4-2.2,3.6-4.4,2.7-6.7c-0.4-0.9-1.2-1.7-1.7-2.6c-0.9-1.5-0.8-3.2-0.6-4.8
		c11.7-2.8,27.1,2.7,25,12.7c-0.7,3.6-3.7,6.7-4.7,10.3c-4.3,15,24,28.6,21.5,41.3c-0.6,3,2.4,5.7,6,5.3c1.4-0.2,2.9-0.5,4.2-0.9
		c2.5-0.8,3.8-3.1,3.2-5.3c-1.6-6-0.9-12.4,1.8-18.1V162.8z"/>
	<path fill="#3B2612" d="M809.9,635.9c2.9,12.2,4.6,24.7,5.1,37.2c0.1,3.3,2.8,5.9,6.1,5.9l11.5,0c3.6,0,6.4-3.1,6.1-6.8
		c-1.3-16,13.2-31.3,24.4-44.6c21.2-25.3,33.1-56.8,44.7-87.6c7.7-20.4,15.1-44.1,4.9-63.1c-0.6-1.1-0.9-2.3-0.8-3.5
		c2.2-30.3,4.4-60.5,6.6-90.8c0-0.1,0-0.2,0-0.3c0.7-7.2,11-7.4,12.2-0.2c2.5,15.1,13.7,29,28.3,33.8c3.4,1.1,7-0.9,7.9-4.3
		c5-19.1-5-39.9-13-58.7c-8.5-20-15.1-41.7-12.8-63.4c3-29.2,21.6-54.7,43.2-74.7c24.8-22.9,54-40.4,83.5-57
		c23.3-13.1,52.4-25.6,75.3-11.8c16.4,9.9,23.1,29.9,29.1,48c10.1,30.2,22.1,59.7,35.2,88.7c13.8,30.4,29,60.3,39.6,92
		c14.5,43.1,20.2,88.7,25.9,133.8c6.4,51,12.8,102.3,10.1,153.7c-5,93.9-40.1,183.5-78.8,269.2c-4.7,10.4-10.5,21.8-21.2,25.8
		c-4.6,1.7-9.6,1.8-14.5,1.9c-67.2,1-134.5,2-201.7,3.1c-6.2,0.1-12.5,0.2-18.7-0.8c-10.4-1.7-20.1-6.3-29.9-10.4
		c-91.5-38.5-196-31.7-290.6-61.6c-10.4-3.3-21.4-7.6-27.5-16.6c-4.4-6.6-5.7-14.7-6.8-22.5c-3.1-21.9-5.8-45.9,6.2-64.5
		c5.8-9.1,14.8-16,19.7-25.7c3.3-6.6,4.6-14,5.7-21.3c3.7-22.7,7.3-45.4,11-68c1-6.1,9.4-7.1,11.7-1.4c1.6,4,2.4,8.9,2.3,13
		c-0.5,18.4,2.1,36.8,7.6,54.4c2.4,7.5,8,15.9,14.6,18c3.8,1.2,7.6-1.5,7.9-5.5c1.1-15.5,5.5-30.7,12.9-44.4
		c2.8-5.2,10.6-3.9,11.5,1.9c1.8,12.2,5.2,24.1,10.3,35.3c0.3,0.7,0.8,1.4,1.4,1.9c8.6,8,22.3,9.9,32.7,4.3
		c11.1-5.9,16.9-18.3,21.6-29.9c11-26.9,20.2-54.6,27.7-82.7C799.6,629.6,808.4,629.7,809.9,635.9z"/>
	<path fill="#372311" d="M905.4,816c-0.5,1-1.4,1.8-2.5,2.3c-13.8,7.1-30.6,11.4-44.8,5.2c6.9-7.1,10.7-17.1,10.3-27
		c-0.1-3.6-0.8-7.3-0.1-10.9c0.9-4.8,4.2-8.9,5.1-13.6c0.7-3.5,0-7.1,0.2-10.7c0.6-9.3,7.1-17.4,8-26.7c0.5-5.4-0.9-11.1,0.5-16.4
		c1-3.7,3.3-7,4.8-10.5c1.2-2.9,1.9-6,2.5-9l0,0c0.6-2.9,4.7-2.7,5.1,0.2c1.2,8.8,2.2,17.7,2.9,26.5c0.4,5.5,0.7,11-0.5,16.4
		c-0.7,3-1.9,6-2.1,9.1c-0.4,7.9,6,15.3,4.3,23c-0.6,2.6-2.1,5.2-1.6,7.8c0.4,2.4,2.3,4.2,3.2,6.4c2,5.3-1.9,11.5,0.2,16.7
		C902.5,808.7,907.5,812.1,905.4,816z"/>
	<path fill="#372311" d="M1008.6,640.2c0.5,1,1.4,1.8,2.5,2.3c13.8,7.1,30.6,11.4,44.8,5.2c-6.9-7.1-10.7-17.1-10.3-27
		c0.1-3.6,0.8-7.3,0.1-10.9c-0.9-4.8-4.2-8.9-5.1-13.6c-0.7-3.5,0-7.1-0.2-10.7c-0.6-9.3-7.1-17.4-8-26.7
		c-0.5-5.4,0.9-11.1-0.5-16.4c-1-3.7-3.3-7-4.8-10.5c-1.2-2.9-1.9-6-2.5-9l0,0c-0.6-2.9-4.7-2.7-5.1,0.2c-1.2,8.8-2.2,17.7-2.9,26.5
		c-0.4,5.5-0.7,11,0.5,16.4c0.7,3,1.9,6,2.1,9.1c0.4,7.9-6,15.3-4.3,23c0.6,2.6,2.1,5.2,1.6,7.8c-0.4,2.4-2.3,4.2-3.2,6.4
		c-2,5.3,1.9,11.5-0.2,16.7C1011.6,632.8,1006.6,636.2,1008.6,640.2z"/>
	<path fill="#3B2612" d="M950,458.1c0.5,1,1.4,1.8,2.5,2.3c13.8,7.1,30.6,11.4,44.8,5.2c-6.9-7.1-10.7-17.1-10.3-27
		c0.1-3.6,0.8-7.3,0.1-10.9c-0.9-4.8-4.2-8.9-5.1-13.6c-0.7-3.5,0-7.1-0.2-10.7c-0.6-9.3-7.1-17.4-8-26.7
		c-0.5-5.4,0.9-11.1-0.5-16.4c-1-3.7-3.3-7-4.8-10.5c-1.2-2.9-1.9-6-2.5-9v0c-0.6-2.9-4.7-2.7-5.1,0.2c-1.2,8.8-2.2,17.7-2.9,26.5
		c-0.4,5.5-0.7,11,0.5,16.4c0.7,3,1.9,6,2.1,9.1c0.4,7.9-6,15.3-4.3,23c0.6,2.6,2.1,5.2,1.6,7.8c-0.4,2.4-2.3,4.2-3.2,6.4
		c-2,5.3,1.9,11.5-0.2,16.7C952.9,450.8,947.9,454.2,950,458.1z"/>
	<path fill="#372311" d="M1031.4,627.6c0.6,1.6,1.8,2.9,3.3,3.8c19.2,12.7,43.2,21.7,65.3,15c-8.9-11.7-12.9-27-10.8-41.5
		c0.8-5.3,2.4-10.6,1.9-16c-0.6-7.2-4.7-13.8-5.2-20.9c-0.4-5.3,1.2-10.5,1.4-15.8c0.7-13.8-7.6-26.9-7.4-40.7
		c0.1-8.1,3.2-16.2,2-24.2c-0.9-5.7-3.8-10.8-5.4-16.3c-1.3-4.5-1.8-9.1-2.2-13.7v0c-0.4-4.3-6.5-4.7-7.6-0.6
		c-3.2,12.8-6.1,25.7-8.6,38.7c-1.5,8-2.9,16.2-1.9,24.3c0.6,4.6,1.9,9.1,1.6,13.7c-0.7,11.7-11.4,21.6-10.2,33.3
		c0.4,4,2.2,7.9,1.1,11.8c-1,3.4-4.1,5.8-5.7,9c-3.8,7.4,1,17.2-3.1,24.5C1037,617.3,1029,621.5,1031.4,627.6z"/>
	<path fill="#4A2F16" d="M61.1,42.8v894.5h1277.8V42.8H61.1z M1091.7,583.5c-0.4,1.4-0.9,2.9-1.7,4.1c-7,11-21.5-0.2-21.4-11
		c0.1-9.8,6.5-18.4,8.6-27.9c2.9-12.5-2.2-26.5-12.6-34.4c-3.8,37.1-7.6,74.6-20.2,109.8c-6.4,17.8-15.1,36.1-11.7,54.7
		c-2.1,0.4-4.1,0.7-6.2,1.1c-0.4-5.2-1.7-10.1-4.3-14.7c-0.5-0.8-1-1.6-1.5-2.4c-0.2-6.1-0.4-12.2-0.5-18.2c1.2-2.4,2.7-4.7,3.9-7
		c3.3-6,4.6-15.1-1.3-18.6c-1.2-0.7-2.8-1.2-3.4-2.4c0-1.2-0.1-2.5-0.1-3.7c0.8-4.3,1.6-8.6,2.4-12.9c0.9-4.9-1.7-9.5-6-11.7
		c-0.5-1-1-1.9-1.7-2.8c-1.8-2.5-4.4-4.4-7.3-5.5c-0.2-0.4-0.4-0.8-0.5-1.3c-2.5-7.3-0.7-15.2,0-22.8c0.5-5.5-0.1-12.3-5.7-14.3
		c-3.3-1.2-6.9,0-9.4,2.5c-7.3,7.2-4.5,19.3-10.8,26.8c-2.6,3-6.4,4.9-8.8,8c-5.9,7.8-1.1,20-6.4,28.3c-2.6,4.1-7.5,6.8-8.8,11.5
		c-2.5,9.2,10.7,18.6,5.9,26.9c-3.8,6.6-16.4,5.5-17.2,13.7c-0.2,2,0.4,3.9,1.4,5.6c3.4,5.8,8.2,11,10.3,17.5
		c1.9,5.7,1.1,12.9-3.7,16.5c-1.9,1.4-4.2,2.1-6.1,3.5c-4.8,3.7-5,10.9-2.9,16.6c2.1,5.6,6,10.4,8.4,16c5.8,13.9,0,31.6-13,39.2
		c-4.2,2.4-9.6,4.9-8.7,10.4c0.3,1.8,1.4,3.4,2.7,4.6c1.2,1,2.4,2,3.6,3c-9.7,7.9-21.9,13.5-34.3,16.4c-6.5,1.5-13.1,2.4-19.8,2.9
		c-0.1-0.3-0.2-0.6-0.3-0.9c-1.2-4.9,0.5-10.2-1.2-14.9c-0.8-2.4-2.5-4.4-3.1-6.9c-0.7-3,0.2-6,0.5-9.1c0.5-5.8-1.4-11.5-3.3-17.1
		c-0.4-1.2-1.4-2.7-2.5-2.2c-0.7,0.3-0.9,1.2-1.1,1.9c-1,5.2-1.9,10.4-2.9,15.7c-0.5,2.5-0.9,5.1-0.8,7.7c0.2,4.9,2.3,10.5-1.1,14
		c-0.8,0.8-1.8,1.4-2.5,2.3c-2,2.7-0.4,6.2,0.3,9.6c-5.6-0.2-11.1-0.5-16.7-1c-0.4-2.9-0.6-5.9-0.3-8.8c0.3-2.3,0.9-4.6,0.7-6.9
		c-0.4-3.4-2.6-6.4-3.4-9.7c-1.2-4.9,0.5-10.2-1.2-14.9c-0.8-2.4-2.5-4.4-3.1-6.9c-0.7-3,0.2-6,0.5-9.1c0.5-5.8-1.4-11.5-3.3-17.1
		c-0.4-1.2-1.4-2.7-2.5-2.2c-0.7,0.3-0.9,1.2-1.1,1.9c-1,5.2-1.9,10.4-2.9,15.7c-0.5,2.5-0.9,5.1-0.8,7.7c0.2,4.9,2.3,10.5-1.1,14
		c-0.8,0.8-1.8,1.4-2.5,2.3c-2.2,2.9,0,7,0.5,10.7c0.5,4-1.3,7.9-2,11.9c-3.8-11.1-0.9-25.1,0.4-37.4c1.4-12.7-2.5-28.6-12.1-34.9
		c-3.7-2.4-8.6,0.7-8.1,5.1c0.7,6.5-0.3,13-2.3,19.4c-0.2-0.5-0.3-1-0.5-1.4c-1.2-4.9,0.5-10.2-1.2-14.9c-0.8-2.4-2.5-4.4-3.1-6.9
		c-0.7-3,0.2-6,0.5-9.1c0.5-5.8-1.4-11.5-3.3-17.1c-0.4-1.2-1.4-2.7-2.5-2.2c-0.7,0.3-0.9,1.2-1.1,1.9c-1,5.2-1.9,10.4-2.9,15.7
		c-0.5,2.5-0.9,5.1-0.8,7.7c0.2,4.9,2.3,10.5-1.1,14c-0.8,0.8-1.8,1.4-2.5,2.3c-2.2,2.9,0,7,0.5,10.7c0.6,5.1-2.5,10.1-2.2,15.2
		c0.1,1.8,0.7,3.7,0,5.4c-0.6,1.6-2.1,2.6-2.9,4.1c-1.4,2.4-1,5.3-1,8.1c-0.8-2.1-2-4.2-2.6-6.4c-1.2-4.9,0.5-10.2-1.2-14.9
		c-0.8-2.4-2.5-4.4-3.1-6.9c-0.7-3,0.2-6,0.5-9.1c0.5-5.8-1.4-11.5-3.3-17.1c-0.4-1.2-1.4-2.7-2.5-2.2c-0.7,0.3-0.9,1.2-1.1,1.9
		c-1,5.2-1.9,10.4-2.9,15.7c-0.5,2.5-0.9,5.1-0.8,7.7c0.2,4.9,2.3,10.5-1.1,14c-0.8,0.8-1.8,1.4-2.5,2.3c-2.2,2.9,0,7,0.5,10.7
		c0.6,5.1-2.5,10.1-2.2,15.2c0.1,1.8,0.7,3.7,0,5.4c-0.6,1.5-1.9,2.5-2.8,3.8c-3.4,0.9-6.8,1.6-10.1,2.2c-20.5,4-41,8.1-61.4,12.1
		c-12.4,2.4-25.1,4.9-37.6,3.1c-26.2-3.7-47.4-25.1-73.8-27c-16.3-1.2-32.1,5.4-48,9.1c-15.9,3.7-34.9,3.7-46.2-7.8
		c-11.3-11.4-10.3-28.5-6.3-44.6c1.5-5.9-0.9-11.9-5.7-15.6c-6.8-5.3-9.9-17.5-10.8-27.2c-1-10.9-7.5-24.6-16.7-26.4
		c-3.5-0.7-6.7,2-6.6,5.6c0.4,20.1,0.2,40.7-7.4,59.4c-3.4,8.3-8.2,16-14.3,22.6c-12.8,13.7-31.7,22.1-50.6,21.2
		c-7.9-0.3-15.5-2.2-22.7-5.1c-0.2-2.4-1-4.8-1.8-7.1c-2.7-8.2-4.9-16.7-6.5-25.2c-1.3-6.4-2.3-13-1.5-19.5c0.4-3.5,1.4-7,1-10.5
		c-0.5-5.2-3.9-9.6-5.2-14.7c-1.9-7.4,0.8-15.4-1.8-22.6c-1.3-3.6-3.8-6.7-4.7-10.4c-1.1-4.5,0.4-9.1,0.8-13.7
		c0.8-8.8-2.1-17.5-4.9-25.9c-0.6-1.8-2.1-4-3.9-3.3c-1.1,0.4-1.4,1.8-1.6,2.9c-1.5,7.9-2.9,15.8-4.4,23.7
		c-0.7,3.9-1.4,7.8-1.3,11.7c0.3,7.4,3.4,15.9-1.6,21.3c-1.2,1.3-2.7,2.2-3.8,3.5c-3.4,4.4,0,10.6,0.7,16.1c1,7.8-3.9,15.3-3.3,23.1
		c0.2,2.8,1,5.6,0,8.2c-0.5,1.3-1.4,2.3-2.3,3.4c-15.7-22.2-24.5-48.9-24.9-75.9c-0.2-17.3,2.9-35.1-1.9-51.7
		c-3.1-10.5-9.2-20-11.2-30.7c-3.5-18.4,5.4-36.7,14.1-53.4c8.3-15.9,23.9-34.7,40.6-27.4c13.7,22.9-4.7,54.4,8.2,77.7
		c2.7,4.8,6.5,8.9,8.5,14c2.8,7.1,1.5,15.2,3.5,22.6c2,7.4,10.3,14.5,17.1,10.7c-7-20.5-2.3-41.4,4.2-62.4c0.1,2.7,1,5.3,1.9,7.8
		c0.2,0.7,0.8,1.5,1.4,1.2c0.4-0.2,0.5-0.7,0.6-1.1c0.5-3,1.1-5.9,1.6-8.9c0.3-1.4,0.5-2.9,0.5-4.4c-0.1-2.7-1.3-6,0.6-7.9
		c0.4-0.5,1-0.8,1.4-1.3c1.3-1.7,0-4-0.3-6c-0.3-2.6,1.1-5.1,1.2-7.7c0.7-2.3,1.3-4.5,1.9-6.8c0.1-0.3,0.2-0.5,0.2-0.8
		c1.7-6.5,3.1-13.1,3.9-19.6c1.2-9.9,1-19.9,3.5-29.5c2.6-9.6,7.8-18.4,10.5-28c4.6-16.1,1.7-33.5,5.1-49.9
		c2.5-11.9,10.5-24,21.2-28.7c0.1,0,0.1,0,0.2-0.1c0.5,1.9,1,3.8,1.3,5.7c0.5,2.4,0.9,4.8,0.5,7.3c-0.2,1.3-0.5,2.6-0.4,3.9
		c0.2,1.9,1.5,3.6,1.9,5.5c0.7,2.7-0.3,5.8,0.7,8.4c0.5,1.3,1.4,2.5,1.8,3.9c0.4,1.7-0.1,3.4-0.3,5.1c-0.3,3.3,0.8,6.5,1.8,9.7
		c0.2,0.7,0.8,1.5,1.4,1.2c0.4-0.2,0.5-0.7,0.6-1.1c0.5-3,1.1-5.9,1.6-8.9c0.3-1.4,0.5-2.9,0.5-4.4c-0.1-2.7-1.3-6,0.6-7.9
		c0.4-0.5,1-0.8,1.4-1.3c1.3-1.7,0-4-0.3-6c-0.3-2,0.6-4,1-6.1c0.1,1.9,0.3,3.7,0.4,5.6c0.2,3.2,1.6,6.2,3.8,8.5
		c-0.2,0.2-0.3,0.5-0.4,0.7c-0.6,1.5-0.1,3.1,0.4,4.7c1,3.1,1.8,6.2,2.4,9.4c0.5,2.4,0.9,4.8,0.5,7.3c-0.2,1.3-0.5,2.6-0.4,3.9
		c0.2,1.9,1.5,3.6,1.9,5.5c0.7,2.7-0.3,5.8,0.7,8.4c0.5,1.3,1.4,2.5,1.8,3.9c0.4,1.7-0.1,3.4-0.3,5.1c-0.3,3.3,0.8,6.5,1.8,9.7
		c0.2,0.7,0.8,1.5,1.4,1.2c0.4-0.2,0.5-0.7,0.6-1.1c0.5-3,1.1-5.9,1.6-8.9c0.3-1.4,0.5-2.9,0.5-4.4c-0.1-2.2-0.9-4.8-0.2-6.7
		c1.4,3.4,4.6,5.8,8.5,5.8c1.6,0,3.2-0.2,4.8-0.5c-3-33.8,1.1-68.2,11.8-100.5c2.9-8.8,6.4-17.5,10.1-26.1c0.8,1.4,1.6,2.8,2,4.4
		c0.7,3-0.2,6-0.5,9.1c-0.5,5.8,1.4,11.5,3.3,17.1c0.4,1.2,1.4,2.7,2.5,2.2c0.7-0.3,0.9-1.2,1.1-1.9c1-5.2,1.9-10.4,2.9-15.7
		c0.5-2.5,0.9-5.1,0.8-7.7c-0.2-4.9-2.3-10.5,1.1-14c0.8-0.8,1.8-1.4,2.5-2.3c2.2-2.9,0-7-0.5-10.7c-0.6-5.1,2.5-10.1,2.2-15.2
		c-0.1-0.9-0.2-1.8-0.3-2.6c1-2.2,2.1-4.5,3.1-6.7c0,0,0.1-0.1,0.1-0.1c0.3-0.4,0.4-0.9,0.6-1.3c2.2-4.7,4.3-9.3,6.5-14
		c0.1,0.7,0.3,1.5,0.5,2.2c0.8,2.4,2.5,4.4,3.1,6.9c0.7,3-0.2,6-0.5,9.1c-0.5,5.8,1.4,11.5,3.3,17.1c0.4,1.2,1.4,2.7,2.5,2.2
		c0.7-0.3,0.9-1.2,1.1-1.9c1-5.2,1.9-10.4,2.9-15.7c0.5-2.5,0.9-5.1,0.8-7.7c-0.2-4.9-2.3-10.5,1.1-14c0.8-0.8,1.8-1.4,2.5-2.3
		c2.2-2.9,0-7-0.5-10.7c-0.4-3.6,1-7.1,1.8-10.7c16.7,4.6,36.8-3.4,44.3-18.9c5.1-10.5,6.2-24.5,16.9-29.5
		c4.8-2.2,10.4-1.9,15.6-3.1c5.1-1.1,9.5-3.6,13.6-6.7c0.1,0.2,0.1,0.3,0.1,0.5c0.7,2.7-0.3,5.8,0.7,8.4c0.5,1.3,1.4,2.5,1.8,3.9
		c0.4,1.7-0.1,3.4-0.3,5.1c-0.3,3.3,0.8,6.5,1.8,9.7c0.2,0.7,0.8,1.5,1.4,1.2c0.4-0.2,0.5-0.7,0.6-1.1c0.5-3,1.1-5.9,1.6-8.9
		c0.3-1.4,0.5-2.9,0.5-4.4c-0.1-2.7-1.3-6,0.6-7.9c0.4-0.5,1-0.8,1.4-1.3c1.3-1.7,0-4-0.3-6c-0.4-2.9,1.4-5.7,1.3-8.6
		c0-0.3-0.1-0.7-0.1-1c2.9-2.9,5.7-5.9,8.6-8.6c10.5-9.6,29-15.4,38.1-4.6l8.5,45c1,5.1,7.7,6.4,10.5,1.9c5-8.1,6.1-18.6,2.1-27.2
		c9.8-8.7,20.9-16.1,32.8-21.8l12.7,40.4c-2.9-17.4,15.7-33.5,33.8-32.4c18.1,1.1,33.2,15.5,39.4,32.1c2.3,6.2,3.7,12.8,7.5,18.2
		c4.5,6.5,12.4,10.2,20.4,10.4c0.9,1.7,1.9,3.3,2.4,5.2c0.7,3-0.2,6-0.5,9.1c-0.5,5.8,1.4,11.5,3.3,17.1c0.4,1.2,1.4,2.7,2.5,2.2
		c0.7-0.3,0.9-1.2,1.1-1.9c1-5.2,1.9-10.4,2.9-15.7c0.5-2.5,0.9-5.1,0.8-7.7c-0.2-3.5-1.3-7.5-0.6-10.7c0.4-0.2,0.8-0.4,1.3-0.6
		c0.2-0.1,0.4-0.2,0.6-0.3c0.5,3.1,0.7,6.1,0.3,9.2c-0.3,2.3-0.9,4.6-0.7,6.9c0.4,3.4,2.6,6.4,3.4,9.7c1.2,4.9-0.5,10.2,1.2,14.9
		c0.8,2.4,2.5,4.4,3.1,6.9c0.7,3-0.2,6-0.5,9.1c-0.5,5.8,1.4,11.5,3.3,17.1c0.4,1.2,1.4,2.7,2.5,2.2c0.7-0.3,0.9-1.2,1.1-1.9
		c1-5.2,1.9-10.4,2.9-15.7c0.5-2.5,0.9-5.1,0.8-7.7c-0.2-4.9-2.3-10.5,1.1-14c0.8-0.8,1.8-1.4,2.5-2.3c2.2-2.9,0-7-0.5-10.7
		c-0.6-5.1,2.5-10.1,2.2-15.2c-0.1-1.5-0.5-3.1-0.2-4.5c8.7,10.6,13.2,24.4,12.3,37.9c-1,14.9-8,30.7-1.2,44.1
		c2.8,5.6,7.7,9.9,11,15.2c10.7,17.4,4.1,44.2,13.4,59.8c3.2,5.4,11.3,4.3,13-1.7c6.9-23.5,8.2-48.3,12.8-72.4
		c0.3-1.7,0.7-3.5,1.1-5.2c0,1.9,0.1,3.9,0.8,5.7c0.8,2.4,2.5,4.4,3.1,6.9c0.7,3-0.2,6-0.5,9.1c-0.5,5.8,1.4,11.5,3.3,17.1
		c0.4,1.2,1.4,2.7,2.5,2.2c0.7-0.3,0.9-1.2,1.1-1.9c1-5.2,1.9-10.4,2.9-15.7c0.5-2.5,0.9-5.1,0.8-7.7c-0.2-4.9-2.3-10.5,1.1-14
		c0.8-0.8,1.8-1.4,2.5-2.3c2.2-2.9,0-7-0.5-10.7c-0.4-3,0.6-6,1.4-9c1.3,4.3,2.3,8.6,3.2,12.9c0.8,4.2,1.5,8.6,1,12.8
		c-0.3,2.3-0.9,4.6-0.7,6.9c0.4,3.4,2.6,6.4,3.4,9.7c1.2,4.9-0.5,10.2,1.2,14.9c0.8,2.4,2.5,4.4,3.1,6.9c0.7,3-0.2,6-0.5,9.1
		c-0.5,5.8,1.4,11.5,3.3,17.1c0.4,1.2,1.4,2.7,2.5,2.2c0.7-0.3,0.9-1.2,1.1-1.9c1-5.2,1.9-10.4,2.9-15.7c0.5-2.5,0.9-5.1,0.8-7.7
		c-0.2-4.9-2.3-10.5,1.1-14c0.8-0.8,1.8-1.4,2.5-2.3c2.2-2.9,0-7-0.5-10.7c-0.6-5.1,2.5-10.1,2.2-15.2c-0.1-1.8-0.7-3.7,0-5.4
		c0.6-1.6,2.1-2.6,2.9-4.1c0.1-0.2,0.2-0.3,0.3-0.5c1.3,2,3.1,3.8,5.1,5.2c2.6,1.9,5,4.2,7.1,6.9c0.1,1.9,0.2,3.8-0.1,5.7
		c-0.3,2.3-0.9,4.6-0.7,6.9c0.4,3.4,2.6,6.4,3.4,9.7c1.2,4.9-0.5,10.2,1.2,14.9c0.8,2.4,2.5,4.4,3.1,6.9c0.7,3-0.2,6-0.5,9.1
		c-0.5,5.8,1.4,11.5,3.3,17.1c0.4,1.2,1.4,2.7,2.5,2.2c0.7-0.3,0.9-1.2,1.1-1.9c1-5.2,1.9-10.4,2.9-15.7c0.4-2.1,0.8-4.2,0.8-6.3
		c0.3,0.9,0.5,1.8,0.8,2.7c0,0.4,0,0.9,0,1.3c0.4,3.4,2.6,6.4,3.4,9.7c1.2,4.9-0.5,10.2,1.2,14.9c0.8,2.4,2.5,4.4,3.1,6.9
		c0.7,3-0.2,6-0.5,9.1c-0.5,5.8,1.4,11.5,3.3,17.1c0.4,1.2,1.4,2.7,2.5,2.2c0.7-0.3,0.9-1.2,1.1-1.9c1-5.2,1.9-10.4,2.9-15.7
		c0.5-2.5,0.9-5.1,0.8-7.7c-0.2-3.3-1.2-7-0.7-10.1c1,0.6,2,1.2,3.1,1.7c5.2,2.5,11.1,3.5,16,6.6c11.7,7.5,12.4,24.2,8.8,37.4
		s-10.2,26.2-8.7,39.8c0.4,3.5,1.4,7.1,3.9,9.6c3.4,3.5,8.7,4.3,13.3,5.8c3.3,1,6.4,2.5,9.2,4.3c0.4,0.8,0.7,1.5,0.9,2.4
		c0.7,3-0.2,6-0.5,9.1c-0.5,5.8,1.4,11.5,3.3,17.1c0.4,1.2,1.4,2.7,2.5,2.2c0.7-0.3,0.9-1.2,1.1-1.9c1-5.2,1.9-10.4,2.9-15.7
		c0.2-1.2,0.5-2.5,0.6-3.8c6.3,7.3,10.6,16.5,12.6,26C1099.8,546.5,1096.2,565.5,1091.7,583.5z"/>
	<path fill="#492E16" d="M275.6,626.9c7.3,13.9,3,30.9,5.7,46.4c2.5,14.4,11,27.2,13,41.6c2,14.6-2.5,31.2,6.2,43.2c2,2.7,4.5,5,6,8
		c1.8,3.7,1.7,7.9,1.6,12c-0.3,13.6-0.7,27.2-1,40.7c-0.1,3.6-0.1,7.3,1.6,10.4c1.3,2.4,3.6,4.2,5.2,6.4c5.2,7.1,3.3,17.2,7.1,25.2
		c1.5,3.3,4,6,5.8,9.1c6.5,11.3,4.2,25.3,1.2,38.1c-0.3,1.4-1.3,2.5-2.7,3c-26.5,9.4-55.6,7.5-83.7,5.4c-1.5-0.1-3.1-0.2-4.4-1.1
		c-1.4-0.9-2.1-2.4-2.8-3.8c-9.2-20.2-4.7-43.8,1.2-65.3c5.9-21.4,13.2-43.6,8.9-65.4c-2.1-10.7-6.7-22.8-0.3-31.7
		c1.8-2.4,4.3-4.4,5.5-7.1c3.4-7.7-4.9-16.4-2.6-24.5c0.8-2.8,2.8-5.1,4.4-7.6c4.6-7.2,5.7-16.1,6.9-24.5
		c2.4-16.1,5.9-32.1,10.6-47.7C270.3,633.8,271.9,629.2,275.6,626.9z"/>
	<path fill="#3B2612" d="M852.2,677.8c-0.3,0.6-0.9,1.1-1.6,1.5c-8.7,4.5-19.4,7.2-28.5,3.3c4.4-4.5,6.8-10.9,6.5-17.1
		c-0.1-2.3-0.5-4.6-0.1-6.9c0.6-3,2.6-5.6,3.2-8.7c0.4-2.2,0-4.5,0.1-6.8c0.4-5.9,4.5-11.1,5.1-17c0.3-3.5-0.6-7,0.3-10.4
		c0.6-2.4,2.1-4.4,3.1-6.7c0.8-1.8,1.2-3.8,1.6-5.7v0c0.4-1.8,3-1.7,3.2,0.1c0.8,5.6,1.4,11.2,1.8,16.8c0.3,3.5,0.5,7-0.3,10.4
		c-0.5,1.9-1.2,3.8-1.3,5.8c-0.3,5,3.8,9.7,2.8,14.6c-0.4,1.7-1.3,3.3-1,5c0.3,1.5,1.5,2.7,2,4.1c1.3,3.3-1.2,7.3,0.2,10.6
		C850.3,673.2,853.5,675.3,852.2,677.8z"/>
	<path fill="#3B2612" d="M891.1,589.6c0.3,0.6,0.9,1.1,1.6,1.5c8.7,4.5,19.4,7.2,28.5,3.3c-4.4-4.5-6.8-10.9-6.5-17.1
		c0.1-2.3,0.5-4.6,0.1-6.9c-0.6-3-2.6-5.6-3.2-8.7c-0.4-2.2,0-4.5-0.1-6.8c-0.4-5.9-4.5-11.1-5.1-17c-0.3-3.5,0.6-7-0.3-10.4
		c-0.6-2.4-2.1-4.4-3.1-6.7c-0.8-1.8-1.2-3.8-1.6-5.7l0,0c-0.4-1.8-3-1.7-3.2,0.1c-0.8,5.6-1.4,11.2-1.8,16.8
		c-0.3,3.5-0.5,7,0.3,10.4c0.5,1.9,1.2,3.8,1.3,5.8c0.3,5-3.8,9.7-2.8,14.6c0.4,1.7,1.3,3.3,1,5c-0.3,1.5-1.5,2.7-2,4.1
		c-1.3,3.3,1.2,7.3-0.2,10.6C893,584.9,889.8,587.1,891.1,589.6z"/>
	<path fill="#3B2612" d="M939.5,467.3c0.3,0.6,0.9,1.1,1.6,1.5c8.7,4.5,19.4,7.2,28.5,3.3c-4.4-4.5-6.8-10.9-6.5-17.1
		c0.1-2.3,0.5-4.6,0.1-6.9c-0.6-3-2.6-5.6-3.2-8.7c-0.4-2.2,0-4.5-0.1-6.8c-0.4-5.9-4.5-11.1-5.1-17c-0.3-3.5,0.6-7-0.3-10.4
		c-0.6-2.4-2.1-4.4-3.1-6.7c-0.8-1.8-1.2-3.8-1.6-5.7l0,0c-0.4-1.8-3-1.7-3.2,0.1c-0.8,5.6-1.4,11.2-1.8,16.8
		c-0.3,3.5-0.5,7,0.3,10.4c0.5,1.9,1.2,3.8,1.3,5.8c0.3,5-3.8,9.7-2.8,14.6c0.4,1.7,1.3,3.3,1,5c-0.3,1.5-1.5,2.7-2,4.1
		c-1.3,3.3,1.2,7.3-0.2,10.6C941.3,462.7,938.1,464.8,939.5,467.3z"/>
	<path fill="#3B2612" d="M922.3,422.3c0.3,0.6,0.9,1.1,1.6,1.5c8.7,4.5,19.4,7.2,28.5,3.3c-4.4-4.5-6.8-10.9-6.5-17.1
		c0.1-2.3,0.5-4.6,0.1-6.9c-0.6-3-2.6-5.6-3.2-8.7c-0.4-2.2,0-4.5-0.1-6.8c-0.4-5.9-4.5-11.1-5.1-17c-0.3-3.5,0.6-7-0.3-10.4
		c-0.6-2.4-2.1-4.4-3.1-6.7c-0.8-1.8-1.2-3.8-1.6-5.7h0c-0.4-1.8-3-1.7-3.2,0.1c-0.8,5.6-1.4,11.2-1.8,16.8c-0.3,3.5-0.5,7,0.3,10.4
		c0.5,1.9,1.2,3.8,1.3,5.8c0.3,5-3.8,9.7-2.8,14.6c0.4,1.7,1.3,3.3,1,5c-0.3,1.5-1.5,2.7-2,4.1c-1.3,3.3,1.2,7.3-0.2,10.6
		C924.1,417.6,921,419.8,922.3,422.3z"/>
	<path fill="#3B2612" d="M811.2,691.3c-0.3,0.6-0.9,1.1-1.6,1.5c-8.7,4.5-19.4,7.2-28.5,3.3c4.4-4.5,6.8-10.9,6.5-17.1
		c-0.1-2.3-0.5-4.6-0.1-6.9c0.6-3,2.6-5.6,3.2-8.7c0.4-2.2,0-4.5,0.1-6.8c0.4-5.9,4.5-11.1,5.1-17c0.3-3.5-0.6-7,0.3-10.4
		c0.6-2.4,2.1-4.4,3.1-6.7c0.8-1.8,1.2-3.8,1.6-5.7l0,0c0.4-1.8,3-1.7,3.2,0.1c0.8,5.6,1.4,11.2,1.8,16.8c0.3,3.5,0.5,7-0.3,10.4
		c-0.5,1.9-1.2,3.8-1.3,5.8c-0.3,5,3.8,9.7,2.8,14.6c-0.4,1.7-1.3,3.3-1,5c0.3,1.5,1.5,2.7,2,4.1c1.3,3.3-1.2,7.3,0.2,10.6
		C809.4,686.7,812.6,688.8,811.2,691.3z"/>
	<path fill="#3B2612" d="M703.8,757.5c-0.3,0.6-0.9,1.1-1.6,1.5c-8.7,4.5-19.4,7.2-28.5,3.3c4.4-4.5,6.8-10.9,6.5-17.1
		c-0.1-2.3-0.5-4.6-0.1-6.9c0.6-3,2.6-5.6,3.2-8.7c0.4-2.2,0-4.5,0.1-6.8c0.4-5.9,4.5-11.1,5.1-17c0.3-3.5-0.6-7,0.3-10.4
		c0.6-2.4,2.1-4.4,3.1-6.7c0.8-1.8,1.2-3.8,1.6-5.7l0,0c0.4-1.8,3-1.7,3.2,0.1c0.8,5.6,1.4,11.2,1.8,16.8c0.3,3.5,0.5,7-0.3,10.4
		c-0.5,1.9-1.2,3.8-1.3,5.8c-0.3,5,3.8,9.7,2.8,14.6c-0.4,1.7-1.3,3.3-1,5c0.3,1.5,1.5,2.7,2,4.1c1.3,3.3-1.2,7.3,0.2,10.6
		C701.9,752.8,705.1,755,703.8,757.5z"/>
	<path fill="#3B2612" d="M658.2,775.5c-0.6,1.2-1.7,2.1-2.9,2.7c-16.4,8.4-36.4,13.5-53.4,6.2c8.2-8.5,12.7-20.4,12.3-32.2
		c-0.2-4.3-0.9-8.7-0.1-12.9c1.1-5.7,5-10.6,6-16.2c0.8-4.2,0-8.5,0.3-12.7c0.7-11.1,8.4-20.8,9.5-31.8c0.6-6.5-1.1-13.2,0.6-19.5
		c1.2-4.5,4-8.3,5.8-12.5c1.4-3.4,2.2-7.1,3-10.8v0c0.7-3.4,5.6-3.2,6.1,0.2c1.5,10.5,2.6,21,3.4,31.6c0.5,6.5,0.9,13.2-0.6,19.5
		c-0.9,3.6-2.3,7.1-2.5,10.8c-0.5,9.4,7.2,18.2,5.2,27.4c-0.7,3.1-2.5,6.1-1.9,9.3c0.5,2.8,2.7,5,3.8,7.7c2.4,6.3-2.3,13.7,0.3,19.8
		C654.7,766.8,660.6,770.8,658.2,775.5z"/>
	<path fill="#3B2612" d="M895.7,650.6c-0.6,1.2-1.7,2.1-2.9,2.7c-16.4,8.4-36.4,13.5-53.4,6.2c8.2-8.5,12.7-20.4,12.3-32.2
		c-0.2-4.3-0.9-8.7-0.1-12.9c1.1-5.7,5-10.6,6-16.2c0.8-4.2,0-8.5,0.3-12.7c0.7-11.1,8.4-20.8,9.5-31.8c0.6-6.5-1.1-13.2,0.6-19.5
		c1.2-4.5,4-8.3,5.8-12.5c1.4-3.4,2.2-7.1,3-10.8v0c0.7-3.4,5.6-3.2,6.1,0.2c1.5,10.5,2.6,21,3.4,31.6c0.5,6.5,0.9,13.2-0.6,19.5
		c-0.9,3.6-2.3,7.1-2.5,10.8c-0.5,9.4,7.2,18.2,5.2,27.4c-0.7,3.1-2.5,6.1-1.9,9.3c0.5,2.8,2.7,5,3.8,7.7c2.4,6.3-2.3,13.7,0.3,19.8
		C892.2,641.8,898.2,645.9,895.7,650.6z"/>
	<path fill="#452C15" d="M287.6,915c-1-5.4,4.5-7.9,8.7-10.4c13-7.6,18.9-25.4,13-39.2c-2.3-5.5-6.2-10.3-8.4-16s-1.9-12.9,2.9-16.6
		c1.9-1.4,4.2-2.1,6.1-3.5c4.9-3.5,5.6-10.8,3.7-16.5c-2.2-6.4-6.9-11.7-10.3-17.5c-1-1.7-1.6-3.6-1.4-5.6
		c0.8-8.2,13.4-7.1,17.2-13.7c4.8-8.3-8.4-17.6-5.9-26.9c1.3-4.7,6.2-7.4,8.8-11.5c5.3-8.3,0.5-20.5,6.4-28.3c2.4-3.2,6.2-5,8.8-8
		c6.3-7.5,3.5-19.6,10.8-26.8c2.5-2.4,6.1-3.6,9.4-2.5c5.5,2,6.2,8.8,5.7,14.3c-0.7,7.6-2.5,15.5,0,22.8c1.4,4,4.8,7.6,8.6,9.2
		c4.9,2,7.9,6.9,6.9,12.1c-0.8,4.4-1.7,8.8-2.5,13.2c-0.2,1.1-0.4,2.4,0.1,3.4c0.7,1.3,2.2,1.7,3.5,2.5c5.9,3.5,4.6,12.5,1.3,18.6
		s-8,12.4-6.4,19.1c0.8,3.1,2.9,5.7,4.5,8.6c5.5,9.7,5,21.2,3.1,32.4c-0.8,5,2.5,9.6,7.5,10.3l0.1,0c4.5,3.8,3.4,11,0.8,16.3
		c-2.6,5.3-6.5,10.3-6.6,16.1c-0.1,3.4,1.1,6.7,2.2,9.9c1.6,4.4,3.2,8.8,4.8,13.2c4.8,13.2,9.4,29.1-6.2,38.7
		c-3.1,1.9-6.6,3.1-10.1,3.9c-28.9,6.5-62.1,3.1-84.5-16.9C288.9,918.4,287.9,916.7,287.6,915z"/>
	<path fill="#452C15" d="M867.9,920c-0.8-4.3,3.6-6.3,6.9-8.2c10.3-6,14.9-20.1,10.3-31.1c-1.9-4.4-4.9-8.2-6.6-12.7
		c-1.7-4.5-1.5-10.2,2.3-13.1c1.5-1.1,3.3-1.7,4.8-2.8c3.9-2.8,4.5-8.5,3-13.1c-1.7-5.1-5.5-9.2-8.2-13.9c-0.8-1.3-1.3-2.9-1.1-4.4
		c0.7-6.5,10.6-5.6,13.7-10.8c3.8-6.5-6.6-14-4.7-21.3c1-3.7,4.9-5.9,7-9.1c4.2-6.5,0.4-16.2,5.1-22.4c1.9-2.5,4.9-4,6.9-6.4
		c5-5.9,2.8-15.6,8.6-21.2c2-1.9,4.9-2.9,7.4-1.9c4.4,1.6,4.9,7,4.5,11.3c-0.6,6-2,12.3,0,18c1.1,3.2,3.8,6,6.8,7.3
		c3.8,1.6,6.2,5.5,5.5,9.6c-0.7,3.5-1.3,7-2,10.4c-0.2,0.9-0.3,1.9,0.1,2.7c0.5,1,1.8,1.4,2.7,2c4.7,2.8,3.7,9.9,1,14.7
		c-2.6,4.8-6.4,9.8-5.1,15.1c0.6,2.5,2.3,4.6,3.5,6.8c4.4,7.7,4,16.8,2.5,25.7c-0.7,3.9,2,7.6,6,8.1l0.1,0c3.5,3,2.7,8.7,0.7,12.9
		c-2.1,4.2-5.1,8.1-5.2,12.8c-0.1,2.7,0.9,5.3,1.8,7.8c1.3,3.5,2.5,7,3.8,10.5c3.8,10.4,7.5,23.1-4.9,30.7c-2.5,1.5-5.2,2.5-8,3.1
		c-22.9,5.1-49.2,2.4-66.9-13.4C869,922.7,868.2,921.5,867.9,920z"/>
	<path fill="#452C15" d="M483.9,266.3c8.7,7.3,11.3,20.7,6.9,31.1c-1,2.4-0.5,5.2,1.5,6.7c2.1,1.5,3.6,4.3,4,6.9
		c0.6,4.5-0.6,9.2,0.4,13.7c0.7,3.2,2.6,5.9,4.1,8.8c6.8,12.1,9.4,26.6,7.4,40.3c-0.5,3.4,2.1,6.5,5.5,6.6c0,0,0.1,0,0.1,0
		c2.9,0,5.4-2.1,5.7-5l12.5-96.5c1.2-9.6,2.6-19.5,7.2-28c4-7.4,10.8-15.1,8.1-23c-1.1-3.2-3.6-5.8-5.2-8.8
		c-3.2-6.1-2.4-13.3-1.5-20.1c2.5-18.9,5.2-38.3,14.8-54.7c5.5-9.5,13.6-19,14.2-29.5c0.2-2.9-1.8-5.6-4.7-6.1
		c-25-4.7-50.5-6.7-75.9-6c-5.8,0.2-12.8,1.1-15.4,6.4c-1.3,2.7-1.2,5.8-0.8,8.8c1.3,11.7,4.8,23.2,10.3,33.7
		c1.6,3.2,3.5,6.4,3.8,10c0.5,6.4-3.9,11.9-5.9,18c-5.7,17,8.2,35,6.1,52.9c-1.3,10.7-8.2,21.4-5.1,31.4
		C482.4,264.8,483.1,265.6,483.9,266.3z"/>
	<path fill="#452C15" d="M833.8,179.2c-8.7,7.3-11.3,20.7-6.9,31.1c1,2.4,0.5,5.2-1.5,6.7c-2.1,1.5-3.6,4.3-4,6.9
		c-0.6,4.5,0.6,9.2-0.4,13.7c-0.7,3.2-2.6,5.9-4.1,8.8c-6.8,12.1-9.4,26.6-7.4,40.3c0.5,3.4-2.1,6.5-5.5,6.6c0,0-0.1,0-0.1,0
		c-2.9,0-5.4-2.1-5.7-5l-12.5-96.5c-1.2-9.6-2.6-19.5-7.2-28c-4-7.4-10.8-15.1-8.1-23c1.1-3.2,3.6-5.8,5.2-8.8
		c3.2-6.1,2.4-13.3,1.5-20.1c-2.5-18.9-5.2-38.3-14.8-54.7c-5.5-9.5-13.6-19-14.2-29.5c-0.2-2.9,1.8-5.6,4.7-6.1
		c25-4.7,50.5-6.7,75.9-6c5.8,0.2,12.8,1.1,15.4,6.4c1.3,2.7,1.2,5.8,0.8,8.8c-1.3,11.7-4.8,23.2-10.3,33.7c-1.6,3.2-3.5,6.4-3.8,10
		c-0.5,6.4,3.9,11.9,5.9,18c5.7,17-8.2,35-6.1,52.9c1.3,10.7,8.2,21.4,5.1,31.4C835.3,177.7,834.6,178.5,833.8,179.2z"/>
	<path fill="#452C15" d="M980.6,319.9c8.7,7.3,11.3,20.7,6.9,31.1c-1,2.4-0.5,5.2,1.5,6.7c2.1,1.5,3.6,4.3,4,6.9
		c0.6,4.5-0.6,9.2,0.4,13.7c0.7,3.2,2.6,5.9,4.1,8.8c6.8,12.1,9.4,26.6,7.4,40.3c-0.5,3.4,2.1,6.5,5.5,6.6c0,0,0.1,0,0.1,0
		c2.9,0,5.4-2.1,5.7-5l12.5-96.5c1.2-9.6,2.6-19.5,7.2-28c4-7.4,10.8-15.1,8.1-23c-1.1-3.2-3.6-5.8-5.2-8.8
		c-3.2-6.1-2.4-13.3-1.5-20.1c2.5-18.9,5.2-38.3,14.8-54.7c5.5-9.5,13.6-19,14.2-29.5c0.2-2.9-1.8-5.6-4.7-6.1
		c-25-4.7-50.5-6.7-75.9-6c-5.8,0.2-12.8,1.1-15.4,6.4c-1.3,2.7-1.2,5.8-0.8,8.8c1.3,11.7,4.8,23.2,10.3,33.7
		c1.6,3.2,3.5,6.4,3.8,10c0.5,6.4-3.9,11.9-5.9,18c-5.7,17,8.2,35,6.1,52.9c-1.3,10.7-8.2,21.4-5.1,31.4
		C979.1,318.4,979.8,319.3,980.6,319.9z"/>
	<path fill="#60421E" d="M0,0v980h1400V0H0z M1254.4,664.1c-2.6,12.8-2.5,26-2.3,39.1c0.4,42.3,0.8,84.6,1.2,127
		c0.1,10.6,0.2,21.4-2.5,31.7c-2.7,10.4-8.3,20-15.2,28.3c-26.2,31.3-69.7,42.7-110.5,43.4c-24.2,0.4-53.8-6.6-60.2-29.9
		c-5.8-20.9,11-40.6,18.3-61.1c8.9-24.9,2.2-54.3-15.5-73.7c-4-4.4-11.4-1.9-11.9,4.1c-3.5,43.9-18.6,88.7-51.5,116.1
		c-4.3,3.6-10.9,0.7-11.2-4.8c-4-59.9-9.6-119.6-16.7-179.2c-0.6-5.4-2.2-11.5-4.7-16.6c-3.5-7.1-14.3-3.7-12.9,4.2
		c12.6,70.4-18.1,142.8-48.9,208.5c-3.7,8-7.9,16.4-15.3,21c-6.1,3.8-13.7,4.5-20.9,5.1c-23.1,1.9-46.2,3.7-69.3,5.6
		c-10.3,0.8-22.3,1-29.2-6.8c-8.4-9.6-3.6-24.3-2.3-37c0.2-1.6,0.2-3.2,0-4.9c-0.9-8.8-14-7.7-13.7,1.2c0.3,9.7-2.7,19.6-8.9,27.2
		c-9.4,11.4-25.4,16.7-39.8,13.7c-3.5-0.7-5.9-4-5.5-7.6c1.1-9.5,0-19.2-3-28.2c-2.3-6.8-12.1-5.9-13.3,1.2
		c-2.4,14.6-8.7,27.7-22.4,30.5c-17.2,3.5-33.1-13.4-50.6-12c-10.4,0.8-19,8-28.5,12.4c-36.1,16.9-77.6-6.5-117.4-6.7
		c-18.4-0.1-36.4,4.9-54.5,8c-46.7,8-95.4,3.4-139.8-13.1c-20-7.4-41.3-20-45.4-40.9c-2.1-10.8,0.8-22.4-3.4-32.6
		c-8.2-19.7-36-20.9-51.8-35.2c-17.1-15.3-16.8-42.2-11.4-64.6c5.4-22.3,14.6-44.9,10.6-67.5c-6-33.9-40-57.7-46-91.6
		c-6.8-38.3,24.2-75.9,16.8-114.1c-2.1-10.7-7.1-20.7-8.8-31.5c-4.5-28.9,20.6-58.2,49.4-59.9c3.4-0.2,6.4,2.2,7.1,5.5
		c9.2,46.8,20,93.2,32.2,139.3c1.9,7.1,12.2,6.7,13.4-0.5c0.7-4,0.8-8.4,0.7-12.3c-1.4-50.6,10.8-101.6,34.8-146.1
		c6.6-12.3,14.4-24.9,14.3-38.9c-0.1-7-2.1-14.3,0.8-20.7c4.8-10.7,20.1-12,27.3-21.2c7.3-9.2,4.1-23,9.1-33.7
		c8.1-17.3,32.8-19.1,45.3-33.5c9.4-10.8,10.6-27.3,20.7-37.5c17.9-18.2,48-5.5,73.3-1.8c34.8,5.1,71.7-11.8,90.7-41.3
		c9.7-15.1,15.5-33.6,30.2-43.8c14.7-10.2,42-1.7,38.9,15.9c-0.9,5.5-4.7,10.2-6,15.6c-5.5,22.6,30.5,43.1,27.3,62.3
		c-0.8,4.6,3,8.6,7.6,8c1.8-0.2,3.6-0.7,5.4-1.3c3.2-1.2,4.9-4.7,4.1-8c-3.6-15.8,1.9-33.4,13.6-44.6c3.6-3.4,9.5-2,11.2,2.7
		c11.4,31.9,20,64.7,25.7,98.1c1.3,7.4,11.9,7.7,13.5,0.3c3.9-18.3,6.4-36.8,7.4-55.5c0.5-8.3,0.7-16.8,3.3-24.7
		c3-8.9,9-16.4,13.5-24.6c9.4-16.8,13-36.3,21.7-53.5c8.7-17.2,25.7-32.8,44.8-30.5c21.3,2.6,34.6,25.5,55,32.3
		c14.1,4.7,30.6,1.3,43.5,8.8c13,7.6,17.8,23.7,21.5,38.3l26,102.4c1.8,6.9,11.6,6.9,13.3-0.1c4.1-16.8,10-33.2,17.4-48.8
		c2.5-5.3,10-5.2,12.5,0.1c11.4,25,25.6,48.8,42.1,70.7c14.5,19.3,31,37.7,39.1,60.4c12.7,35.5,3.4,77.4,15.2,112
		c2.2,6.5,11.5,6.1,13.2-0.6l13-52.1c3.7-14.7,13.7-32.9,26.5-34c4.2-0.4,7.6,3.2,7.3,7.3c-2,34.1,10.9,68.9,34.9,93.3
		c13.2,13.4,30.2,25,35.3,43c4,13.8,0.1,28.9,3.8,42.8c5.5,20.4,26.1,33.6,33.3,53.5C1280.6,604.6,1260.4,634.3,1254.4,664.1z"/>
</g>
</svg>
